<?xml version="1.0" encoding="UTF-8"?>
<svg id="Layer_1" xmlns="http://www.w3.org/2000/svg" version="1.1" viewBox="0 0 595.28 841.89">
  <!-- Generator: Adobe Illustrator 29.5.1, SVG Export Plug-In . SVG Version: 2.1.0 Build 141)  -->
  <defs>
    <style>
      .st0 {
        opacity: .51;
      }

      .st1 {
        fill: #f0f0f0;
      }
    </style>
  </defs>
  <g class="st0">
    <path class="st1" d="M358.87,33.53c-1.52,0-2.75,1.23-2.75,2.75s1.23,2.75,2.75,2.75,2.75-1.23,2.75-2.75-1.23-2.75-2.75-2.75Z"/>
    <path class="st1" d="M366.52,33.53c-1.52,0-2.75,1.23-2.75,2.75s1.23,2.75,2.75,2.75,2.75-1.23,2.75-2.75-1.23-2.75-2.75-2.75Z"/>
    <circle class="st1" cx="366.52" cy="27.9" r="2.75" transform="translate(.23 58.67) rotate(-9.15)"/>
    <circle class="st1" cx="305.29" cy="69.81" r="2.75"/>
    <circle class="st1" cx="312.95" cy="69.81" r="2.75"/>
    <circle class="st1" cx="312.95" cy="61.43" r="2.75"/>
    <circle class="st1" cx="320.6" cy="69.81" r="2.75"/>
    <circle class="st1" cx="320.6" cy="61.43" r="2.75"/>
    <path class="st1" d="M320.6,50.3c-1.52,0-2.75,1.23-2.75,2.75s1.23,2.75,2.75,2.75,2.75-1.23,2.75-2.75-1.23-2.75-2.75-2.75Z"/>
    <circle class="st1" cx="328.25" cy="69.81" r="2.75"/>
    <circle class="st1" cx="328.25" cy="61.43" r="2.75"/>
    <path class="st1" d="M328.25,50.3c-1.52,0-2.75,1.23-2.75,2.75s1.23,2.75,2.75,2.75,2.75-1.23,2.75-2.75-1.23-2.75-2.75-2.75Z"/>
    <path class="st1" d="M335.91,67.06c-1.52,0-2.75,1.23-2.75,2.75s1.23,2.75,2.75,2.75,2.75-1.23,2.75-2.75-1.23-2.75-2.75-2.75Z"/>
    <path class="st1" d="M335.91,58.68c-1.52,0-2.75,1.23-2.75,2.75s1.23,2.75,2.75,2.75,2.75-1.23,2.75-2.75-1.23-2.75-2.75-2.75Z"/>
    <path class="st1" d="M335.91,50.3c-1.52,0-2.75,1.23-2.75,2.75s1.23,2.75,2.75,2.75,2.75-1.23,2.75-2.75-1.23-2.75-2.75-2.75Z"/>
    <circle class="st1" cx="343.56" cy="69.81" r="2.75"/>
    <circle class="st1" cx="343.56" cy="61.43" r="2.75"/>
    <circle class="st1" cx="351.21" cy="69.81" r="2.75" transform="translate(.22 140.72) rotate(-22.66)"/>
    <circle class="st1" cx="351.21" cy="61.43" r="2.75" transform="translate(3.45 140.08) rotate(-22.66)"/>
    <circle class="st1" cx="358.87" cy="69.81" r="2.75"/>
    <circle class="st1" cx="358.87" cy="61.43" r="2.75"/>
    <circle class="st1" cx="366.52" cy="69.81" r="2.75" transform="translate(-6.44 59.2) rotate(-9.15)"/>
    <circle class="st1" cx="366.52" cy="61.43" r="2.75" transform="translate(-5.1 59.09) rotate(-9.15)"/>
    <circle class="st1" cx="366.52" cy="44.66" r="2.75" transform="translate(-2.44 58.88) rotate(-9.15)"/>
    <path class="st1" d="M374.18,25.15c-1.52,0-2.75,1.23-2.75,2.75s1.23,2.75,2.75,2.75,2.75-1.23,2.75-2.75-1.23-2.75-2.75-2.75Z"/>
    <path class="st1" d="M381.83,16.77c-1.52,0-2.75,1.23-2.75,2.75s1.23,2.75,2.75,2.75,2.75-1.23,2.75-2.75-1.23-2.75-2.75-2.75Z"/>
    <path class="st1" d="M397.14,33.53c-1.52,0-2.75,1.23-2.75,2.75s1.23,2.75,2.75,2.75,2.75-1.23,2.75-2.75-1.23-2.75-2.75-2.75Z"/>
    <path class="st1" d="M404.79,33.53c-1.52,0-2.75,1.23-2.75,2.75s1.23,2.75,2.75,2.75,2.75-1.23,2.75-2.75-1.23-2.75-2.75-2.75Z"/>
    <circle class="st1" cx="404.79" cy="27.9" r="2.75"/>
    <path class="st1" d="M412.44,33.53c-1.52,0-2.75,1.23-2.75,2.75s1.23,2.75,2.75,2.75,2.75-1.23,2.75-2.75-1.23-2.75-2.75-2.75Z"/>
    <circle class="st1" cx="412.44" cy="27.9" r="2.75"/>
    <path class="st1" d="M420.1,33.53c-1.52,0-2.75,1.23-2.75,2.75s1.23,2.75,2.75,2.75,2.75-1.23,2.75-2.75-1.23-2.75-2.75-2.75Z"/>
    <circle class="st1" cx="420.1" cy="27.9" r="2.75" transform="translate(21.64 163.89) rotate(-22.64)"/>
    <path class="st1" d="M374.18,67.06c-1.52,0-2.75,1.23-2.75,2.75s1.23,2.75,2.75,2.75,2.75-1.23,2.75-2.75-1.23-2.75-2.75-2.75Z"/>
    <path class="st1" d="M374.18,58.68c-1.52,0-2.75,1.23-2.75,2.75s1.23,2.75,2.75,2.75,2.75-1.23,2.75-2.75-1.23-2.75-2.75-2.75Z"/>
    <path class="st1" d="M374.18,50.3c-1.52,0-2.75,1.23-2.75,2.75s1.23,2.75,2.75,2.75,2.75-1.23,2.75-2.75-1.23-2.75-2.75-2.75Z"/>
    <circle class="st1" cx="381.83" cy="69.81" r="2.75"/>
    <circle class="st1" cx="381.83" cy="61.43" r="2.75"/>
    <path class="st1" d="M381.83,50.3c-1.52,0-2.75,1.23-2.75,2.75s1.23,2.75,2.75,2.75,2.75-1.23,2.75-2.75-1.23-2.75-2.75-2.75Z"/>
    <circle class="st1" cx="381.83" cy="44.66" r="2.75"/>
    <circle class="st1" cx="389.48" cy="69.81" r="2.75"/>
    <circle class="st1" cx="389.48" cy="61.43" r="2.75"/>
    <path class="st1" d="M389.48,50.3c-1.52,0-2.75,1.23-2.75,2.75s1.23,2.75,2.75,2.75,2.75-1.23,2.75-2.75-1.23-2.75-2.75-2.75Z"/>
    <circle class="st1" cx="389.48" cy="44.66" r="2.75"/>
    <circle class="st1" cx="397.14" cy="69.81" r="2.75"/>
    <circle class="st1" cx="397.14" cy="61.43" r="2.75"/>
    <path class="st1" d="M397.14,50.3c-1.52,0-2.75,1.23-2.75,2.75s1.23,2.75,2.75,2.75,2.75-1.23,2.75-2.75-1.23-2.75-2.75-2.75Z"/>
    <circle class="st1" cx="397.14" cy="44.66" r="2.75"/>
    <circle class="st1" cx="404.79" cy="69.81" r="2.75"/>
    <circle class="st1" cx="404.79" cy="61.43" r="2.75"/>
    <path class="st1" d="M404.79,50.3c-1.52,0-2.75,1.23-2.75,2.75s1.23,2.75,2.75,2.75,2.75-1.23,2.75-2.75-1.23-2.75-2.75-2.75Z"/>
    <circle class="st1" cx="404.79" cy="44.66" r="2.75"/>
    <circle class="st1" cx="412.44" cy="69.81" r="2.75"/>
    <circle class="st1" cx="412.44" cy="61.43" r="2.75"/>
    <path class="st1" d="M412.44,50.3c-1.52,0-2.75,1.23-2.75,2.75s1.23,2.75,2.75,2.75,2.75-1.23,2.75-2.75-1.23-2.75-2.75-2.75Z"/>
    <circle class="st1" cx="412.44" cy="44.66" r="2.75"/>
    <circle class="st1" cx="420.1" cy="69.81" r="2.75" transform="translate(5.5 167.12) rotate(-22.64)"/>
    <circle class="st1" cx="420.1" cy="61.43" r="2.75" transform="translate(8.73 166.47) rotate(-22.64)"/>
    <path class="st1" d="M420.1,50.3c-1.52,0-2.75,1.23-2.75,2.75s1.23,2.75,2.75,2.75,2.75-1.23,2.75-2.75-1.23-2.75-2.75-2.75Z"/>
    <circle class="st1" cx="420.1" cy="44.66" r="2.75" transform="translate(15.19 165.18) rotate(-22.64)"/>
    <circle class="st1" cx="305.29" cy="103.35" r="2.75"/>
    <path class="st1" d="M305.29,92.21c-1.52,0-2.75,1.23-2.75,2.75s1.23,2.75,2.75,2.75,2.75-1.23,2.75-2.75-1.23-2.75-2.75-2.75Z"/>
    <circle class="st1" cx="305.29" cy="86.58" r="2.75"/>
    <circle class="st1" cx="312.95" cy="103.35" r="2.75"/>
    <circle class="st1" cx="305.29" cy="78.2" r="2.75"/>
    <circle class="st1" cx="320.6" cy="103.35" r="2.75"/>
    <path class="st1" d="M320.6,92.21c-1.52,0-2.75,1.23-2.75,2.75s1.23,2.75,2.75,2.75,2.75-1.23,2.75-2.75-1.23-2.75-2.75-2.75Z"/>
    <circle class="st1" cx="320.6" cy="86.58" r="2.75"/>
    <circle class="st1" cx="320.6" cy="78.2" r="2.75"/>
    <circle class="st1" cx="328.25" cy="103.35" r="2.75"/>
    <path class="st1" d="M328.25,92.21c-1.52,0-2.75,1.23-2.75,2.75s1.23,2.75,2.75,2.75,2.75-1.23,2.75-2.75-1.23-2.75-2.75-2.75Z"/>
    <circle class="st1" cx="328.25" cy="86.58" r="2.75"/>
    <circle class="st1" cx="328.25" cy="78.2" r="2.75"/>
    <path class="st1" d="M335.91,100.6c-1.52,0-2.75,1.23-2.75,2.75s1.23,2.75,2.75,2.75,2.75-1.23,2.75-2.75-1.23-2.75-2.75-2.75Z"/>
    <path class="st1" d="M335.91,92.21c-1.52,0-2.75,1.23-2.75,2.75s1.23,2.75,2.75,2.75,2.75-1.23,2.75-2.75-1.23-2.75-2.75-2.75Z"/>
    <path class="st1" d="M335.91,83.83c-1.52,0-2.75,1.23-2.75,2.75s1.23,2.75,2.75,2.75,2.75-1.23,2.75-2.75-1.23-2.75-2.75-2.75Z"/>
    <path class="st1" d="M335.91,75.45c-1.52,0-2.75,1.23-2.75,2.75s1.23,2.75,2.75,2.75,2.75-1.23,2.75-2.75-1.23-2.75-2.75-2.75Z"/>
    <circle class="st1" cx="343.56" cy="103.35" r="2.75"/>
    <path class="st1" d="M343.56,92.21c-1.52,0-2.75,1.23-2.75,2.75s1.23,2.75,2.75,2.75,2.75-1.23,2.75-2.75-1.23-2.75-2.75-2.75Z"/>
    <circle class="st1" cx="343.56" cy="86.58" r="2.75"/>
    <circle class="st1" cx="343.56" cy="78.2" r="2.75"/>
    <circle class="st1" cx="351.21" cy="103.35" r="2.75" transform="translate(-12.7 143.31) rotate(-22.66)"/>
    <path class="st1" d="M351.21,92.21c-1.52,0-2.75,1.23-2.75,2.75s1.23,2.75,2.75,2.75,2.75-1.23,2.75-2.75-1.23-2.75-2.75-2.75Z"/>
    <circle class="st1" cx="351.21" cy="86.58" r="2.75" transform="translate(-6.24 142.02) rotate(-22.66)"/>
    <circle class="st1" cx="351.21" cy="78.2" r="2.75" transform="translate(-3.01 141.37) rotate(-22.66)"/>
    <circle class="st1" cx="358.87" cy="103.35" r="2.75"/>
    <path class="st1" d="M358.87,92.21c-1.52,0-2.75,1.23-2.75,2.75s1.23,2.75,2.75,2.75,2.75-1.23,2.75-2.75-1.23-2.75-2.75-2.75Z"/>
    <circle class="st1" cx="358.87" cy="86.58" r="2.75"/>
    <circle class="st1" cx="358.87" cy="78.2" r="2.75"/>
    <circle class="st1" cx="366.52" cy="103.35" r="2.75" transform="translate(-11.77 59.63) rotate(-9.15)"/>
    <path class="st1" d="M366.52,92.21c-1.52,0-2.75,1.23-2.75,2.75s1.23,2.75,2.75,2.75,2.75-1.23,2.75-2.75-1.23-2.75-2.75-2.75Z"/>
    <circle class="st1" cx="366.52" cy="86.58" r="2.75" transform="translate(-9.11 59.41) rotate(-9.15)"/>
    <circle class="st1" cx="366.52" cy="78.2" r="2.75" transform="translate(-7.77 59.31) rotate(-9.15)"/>
    <circle class="st1" cx="305.29" cy="136.88" r="2.75"/>
    <circle class="st1" cx="305.29" cy="120.11" r="2.75"/>
    <circle class="st1" cx="312.95" cy="128.49" r="2.75"/>
    <circle class="st1" cx="312.95" cy="120.11" r="2.75"/>
    <circle class="st1" cx="305.29" cy="111.73" r="2.75"/>
    <circle class="st1" cx="312.95" cy="111.73" r="2.75"/>
    <circle class="st1" cx="320.6" cy="128.49" r="2.75"/>
    <circle class="st1" cx="320.6" cy="120.11" r="2.75"/>
    <circle class="st1" cx="320.6" cy="111.73" r="2.75"/>
    <circle class="st1" cx="328.25" cy="128.49" r="2.75"/>
    <circle class="st1" cx="328.25" cy="120.11" r="2.75"/>
    <circle class="st1" cx="328.25" cy="111.73" r="2.75"/>
    <path class="st1" d="M335.91,125.75c-1.52,0-2.75,1.23-2.75,2.75s1.23,2.75,2.75,2.75,2.75-1.23,2.75-2.75-1.23-2.75-2.75-2.75Z"/>
    <path class="st1" d="M335.91,117.36c-1.52,0-2.75,1.23-2.75,2.75s1.23,2.75,2.75,2.75,2.75-1.23,2.75-2.75-1.23-2.75-2.75-2.75Z"/>
    <path class="st1" d="M335.91,108.98c-1.52,0-2.75,1.23-2.75,2.75s1.23,2.75,2.75,2.75,2.75-1.23,2.75-2.75-1.23-2.75-2.75-2.75Z"/>
    <circle class="st1" cx="343.56" cy="136.88" r="2.75"/>
    <circle class="st1" cx="343.56" cy="128.49" r="2.75"/>
    <circle class="st1" cx="343.56" cy="120.11" r="2.75"/>
    <circle class="st1" cx="343.56" cy="111.73" r="2.75"/>
    <circle class="st1" cx="351.21" cy="136.88" r="2.75" transform="translate(-25.62 145.9) rotate(-22.66)"/>
    <circle class="st1" cx="351.21" cy="128.49" r="2.75" transform="translate(-22.39 145.26) rotate(-22.66)"/>
    <circle class="st1" cx="351.21" cy="120.11" r="2.75" transform="translate(-19.16 144.61) rotate(-22.66)"/>
    <circle class="st1" cx="351.21" cy="111.73" r="2.75" transform="translate(-15.93 143.96) rotate(-22.66)"/>
    <circle class="st1" cx="358.87" cy="136.88" r="2.75"/>
    <circle class="st1" cx="358.87" cy="128.49" r="2.75"/>
    <circle class="st1" cx="358.87" cy="120.11" r="2.75"/>
    <circle class="st1" cx="358.87" cy="111.73" r="2.75"/>
    <circle class="st1" cx="366.52" cy="136.88" r="2.75" transform="translate(-17.11 60.05) rotate(-9.15)"/>
    <circle class="st1" cx="366.52" cy="128.49" r="2.75" transform="translate(-15.77 59.95) rotate(-9.15)"/>
    <circle class="st1" cx="366.52" cy="120.11" r="2.75" transform="translate(-14.44 59.84) rotate(-9.15)"/>
    <circle class="st1" cx="366.52" cy="111.73" r="2.75" transform="translate(-13.11 59.73) rotate(-9.15)"/>
    <path class="st1" d="M374.18,100.6c-1.52,0-2.75,1.23-2.75,2.75s1.23,2.75,2.75,2.75,2.75-1.23,2.75-2.75-1.23-2.75-2.75-2.75Z"/>
    <path class="st1" d="M374.18,92.21c-1.52,0-2.75,1.23-2.75,2.75s1.23,2.75,2.75,2.75,2.75-1.23,2.75-2.75-1.23-2.75-2.75-2.75Z"/>
    <path class="st1" d="M374.18,83.83c-1.52,0-2.75,1.23-2.75,2.75s1.23,2.75,2.75,2.75,2.75-1.23,2.75-2.75-1.23-2.75-2.75-2.75Z"/>
    <path class="st1" d="M374.18,75.45c-1.52,0-2.75,1.23-2.75,2.75s1.23,2.75,2.75,2.75,2.75-1.23,2.75-2.75-1.23-2.75-2.75-2.75Z"/>
    <circle class="st1" cx="381.83" cy="103.35" r="2.75"/>
    <path class="st1" d="M381.83,92.21c-1.52,0-2.75,1.23-2.75,2.75s1.23,2.75,2.75,2.75,2.75-1.23,2.75-2.75-1.23-2.75-2.75-2.75Z"/>
    <circle class="st1" cx="381.83" cy="86.58" r="2.75"/>
    <circle class="st1" cx="381.83" cy="78.2" r="2.75"/>
    <circle class="st1" cx="389.48" cy="103.35" r="2.75"/>
    <path class="st1" d="M389.48,92.21c-1.52,0-2.75,1.23-2.75,2.75s1.23,2.75,2.75,2.75,2.75-1.23,2.75-2.75-1.23-2.75-2.75-2.75Z"/>
    <circle class="st1" cx="389.48" cy="86.58" r="2.75"/>
    <circle class="st1" cx="389.48" cy="78.2" r="2.75"/>
    <circle class="st1" cx="397.14" cy="103.35" r="2.75"/>
    <path class="st1" d="M397.14,92.21c-1.52,0-2.75,1.23-2.75,2.75s1.23,2.75,2.75,2.75,2.75-1.23,2.75-2.75-1.23-2.75-2.75-2.75Z"/>
    <circle class="st1" cx="397.14" cy="86.58" r="2.75"/>
    <circle class="st1" cx="397.14" cy="78.2" r="2.75"/>
    <circle class="st1" cx="404.79" cy="103.35" r="2.75"/>
    <path class="st1" d="M404.79,92.21c-1.52,0-2.75,1.23-2.75,2.75s1.23,2.75,2.75,2.75,2.75-1.23,2.75-2.75-1.23-2.75-2.75-2.75Z"/>
    <circle class="st1" cx="404.79" cy="86.58" r="2.75"/>
    <circle class="st1" cx="404.79" cy="78.2" r="2.75"/>
    <circle class="st1" cx="412.44" cy="103.35" r="2.75"/>
    <path class="st1" d="M412.44,92.21c-1.52,0-2.75,1.23-2.75,2.75s1.23,2.75,2.75,2.75,2.75-1.23,2.75-2.75-1.23-2.75-2.75-2.75Z"/>
    <circle class="st1" cx="412.44" cy="86.58" r="2.75"/>
    <circle class="st1" cx="412.44" cy="78.2" r="2.75"/>
    <circle class="st1" cx="420.1" cy="103.35" r="2.75" transform="translate(-7.41 169.7) rotate(-22.64)"/>
    <path class="st1" d="M420.1,92.21c-1.52,0-2.75,1.23-2.75,2.75s1.23,2.75,2.75,2.75,2.75-1.23,2.75-2.75-1.23-2.75-2.75-2.75Z"/>
    <circle class="st1" cx="420.1" cy="86.58" r="2.75" transform="translate(-.95 168.41) rotate(-22.64)"/>
    <circle class="st1" cx="420.1" cy="78.2" r="2.75" transform="translate(2.28 167.76) rotate(-22.64)"/>
    <path class="st1" d="M374.18,134.13c-1.52,0-2.75,1.23-2.75,2.75s1.23,2.75,2.75,2.75,2.75-1.23,2.75-2.75-1.23-2.75-2.75-2.75Z"/>
    <path class="st1" d="M374.18,125.75c-1.52,0-2.75,1.23-2.75,2.75s1.23,2.75,2.75,2.75,2.75-1.23,2.75-2.75-1.23-2.75-2.75-2.75Z"/>
    <path class="st1" d="M374.18,117.36c-1.52,0-2.75,1.23-2.75,2.75s1.23,2.75,2.75,2.75,2.75-1.23,2.75-2.75-1.23-2.75-2.75-2.75Z"/>
    <path class="st1" d="M374.18,108.98c-1.52,0-2.75,1.23-2.75,2.75s1.23,2.75,2.75,2.75,2.75-1.23,2.75-2.75-1.23-2.75-2.75-2.75Z"/>
    <circle class="st1" cx="381.83" cy="136.88" r="2.75"/>
    <circle class="st1" cx="381.83" cy="128.49" r="2.75"/>
    <circle class="st1" cx="381.83" cy="120.11" r="2.75"/>
    <circle class="st1" cx="381.83" cy="111.73" r="2.75"/>
    <circle class="st1" cx="389.48" cy="136.88" r="2.75"/>
    <circle class="st1" cx="389.48" cy="128.49" r="2.75"/>
    <circle class="st1" cx="389.48" cy="120.11" r="2.75"/>
    <circle class="st1" cx="389.48" cy="111.73" r="2.75"/>
    <circle class="st1" cx="397.14" cy="136.88" r="2.75"/>
    <circle class="st1" cx="397.14" cy="128.49" r="2.75"/>
    <circle class="st1" cx="397.14" cy="120.11" r="2.75"/>
    <circle class="st1" cx="397.14" cy="111.73" r="2.75"/>
    <circle class="st1" cx="404.79" cy="136.88" r="2.75"/>
    <circle class="st1" cx="404.79" cy="128.49" r="2.75"/>
    <circle class="st1" cx="404.79" cy="120.11" r="2.75"/>
    <circle class="st1" cx="404.79" cy="111.73" r="2.75"/>
    <circle class="st1" cx="412.44" cy="136.88" r="2.75"/>
    <circle class="st1" cx="412.44" cy="128.49" r="2.75"/>
    <circle class="st1" cx="412.44" cy="120.11" r="2.75"/>
    <circle class="st1" cx="412.44" cy="111.73" r="2.75"/>
    <circle class="st1" cx="420.1" cy="136.88" r="2.75" transform="translate(-20.32 172.29) rotate(-22.64)"/>
    <circle class="st1" cx="420.1" cy="128.49" r="2.75" transform="translate(-17.09 171.64) rotate(-22.64)"/>
    <circle class="st1" cx="420.1" cy="120.11" r="2.75" transform="translate(-13.86 171) rotate(-22.64)"/>
    <circle class="st1" cx="420.1" cy="111.73" r="2.75" transform="translate(-10.63 170.35) rotate(-22.64)"/>
    <path class="st1" d="M430.28,35.21c-.1-.25-.24-.47-.41-.68-.5-.61-1.27-1-2.12-1-.34,0-.67.07-.98.18-.06.02-.11.05-.17.07-.3.14-.57.32-.8.55-.5.5-.8,1.18-.8,1.94,0,.85.39,1.62,1,2.12.14.11.28.21.44.3.23.13.49.22.76.28.18.04.36.06.55.06,1.52,0,2.75-1.23,2.75-2.75,0-.19-.02-.37-.06-.55-.04-.18-.09-.35-.16-.52Z"/>
    <path class="st1" d="M427.75,25.15c-.19,0-.37.02-.55.06-.27.05-.52.15-.76.28-.16.08-.3.18-.44.3-.61.5-1,1.27-1,2.12s.39,1.62,1,2.12c.14.11.28.21.44.3.23.13.49.22.76.28.18.04.36.06.55.06,1.52,0,2.75-1.23,2.75-2.75s-1.23-2.75-2.75-2.75Z"/>
    <path class="st1" d="M427.75,16.77c-.19,0-.37.02-.55.06-.27.05-.52.15-.76.28-.16.08-.3.18-.44.3-.61.5-1,1.27-1,2.12,0,1.52,1.23,2.75,2.75,2.75.85,0,1.62-.39,2.12-1,.11-.14.21-.28.3-.44.13-.23.22-.49.28-.76.04-.18.06-.36.06-.55,0-1.52-1.23-2.75-2.75-2.75Z"/>
    <path class="st1" d="M435.41,25.15c-1.52,0-2.75,1.23-2.75,2.75s1.23,2.75,2.75,2.75,2.75-1.23,2.75-2.75-1.23-2.75-2.75-2.75Z"/>
    <path class="st1" d="M435.41,16.77c-1.52,0-2.75,1.23-2.75,2.75s1.23,2.75,2.75,2.75,2.75-1.23,2.75-2.75-1.23-2.75-2.75-2.75Z"/>
    <circle class="st1" cx="443.06" cy="27.9" r="2.75"/>
    <path class="st1" d="M427.75,67.06c-.19,0-.37.02-.55.06-.27.05-.52.15-.76.28-.16.08-.3.18-.44.3-.61.5-1,1.27-1,2.12s.39,1.62,1,2.12c.14.11.28.21.44.3.23.13.49.22.76.28.18.04.36.06.55.06,1.52,0,2.75-1.23,2.75-2.75s-1.23-2.75-2.75-2.75Z"/>
    <path class="st1" d="M427.75,58.68c-.19,0-.37.02-.55.06-.27.05-.52.15-.76.28-.16.08-.3.18-.44.3-.61.5-1,1.27-1,2.12s.39,1.62,1,2.12c.14.11.28.21.44.3.23.13.49.22.76.28.18.04.36.06.55.06,1.52,0,2.75-1.23,2.75-2.75s-1.23-2.75-2.75-2.75Z"/>
    <path class="st1" d="M427.75,50.3c-.19,0-.37.02-.55.06-.27.05-.52.15-.76.28-.16.08-.3.18-.44.3-.61.5-1,1.27-1,2.12s.39,1.62,1,2.12c.14.11.28.21.44.3.23.13.49.22.76.28.18.04.36.06.55.06,1.52,0,2.75-1.23,2.75-2.75s-1.23-2.75-2.75-2.75Z"/>
    <path class="st1" d="M435.41,67.06c-1.52,0-2.75,1.23-2.75,2.75s1.23,2.75,2.75,2.75,2.75-1.23,2.75-2.75-1.23-2.75-2.75-2.75Z"/>
    <path class="st1" d="M435.41,58.68c-1.52,0-2.75,1.23-2.75,2.75s1.23,2.75,2.75,2.75,2.75-1.23,2.75-2.75-1.23-2.75-2.75-2.75Z"/>
    <path class="st1" d="M435.41,50.3c-1.52,0-2.75,1.23-2.75,2.75s1.23,2.75,2.75,2.75,2.75-1.23,2.75-2.75-1.23-2.75-2.75-2.75Z"/>
    <circle class="st1" cx="427.75" cy="44.66" r="2.75"/>
    <path class="st1" d="M435.41,41.92c-1.52,0-2.75,1.23-2.75,2.75s1.23,2.75,2.75,2.75,2.75-1.23,2.75-2.75-1.23-2.75-2.75-2.75Z"/>
    <circle class="st1" cx="443.06" cy="69.81" r="2.75"/>
    <circle class="st1" cx="443.06" cy="61.43" r="2.75"/>
    <path class="st1" d="M443.06,50.3c-1.52,0-2.75,1.23-2.75,2.75s1.23,2.75,2.75,2.75,2.75-1.23,2.75-2.75-1.23-2.75-2.75-2.75Z"/>
    <circle class="st1" cx="443.06" cy="44.66" r="2.75"/>
    <circle class="st1" cx="450.71" cy="69.81" r="2.75"/>
    <circle class="st1" cx="450.71" cy="61.43" r="2.75"/>
    <path class="st1" d="M450.71,50.3c-1.52,0-2.75,1.23-2.75,2.75s1.23,2.75,2.75,2.75,2.75-1.23,2.75-2.75-1.23-2.75-2.75-2.75Z"/>
    <circle class="st1" cx="450.71" cy="44.66" r="2.75"/>
    <path class="st1" d="M458.37,67.06c-1.52,0-2.75,1.23-2.75,2.75s1.23,2.75,2.75,2.75,2.75-1.23,2.75-2.75-1.23-2.75-2.75-2.75Z"/>
    <path class="st1" d="M458.37,58.68c-1.52,0-2.75,1.23-2.75,2.75s1.23,2.75,2.75,2.75,2.75-1.23,2.75-2.75-1.23-2.75-2.75-2.75Z"/>
    <path class="st1" d="M458.37,50.3c-1.52,0-2.75,1.23-2.75,2.75s1.23,2.75,2.75,2.75,2.75-1.23,2.75-2.75-1.23-2.75-2.75-2.75Z"/>
    <path class="st1" d="M458.37,41.92c-1.52,0-2.75,1.23-2.75,2.75s1.23,2.75,2.75,2.75,2.75-1.23,2.75-2.75-1.23-2.75-2.75-2.75Z"/>
    <circle class="st1" cx="466.02" cy="69.81" r="2.75"/>
    <circle class="st1" cx="466.02" cy="61.43" r="2.75"/>
    <path class="st1" d="M466.02,50.3c-1.52,0-2.75,1.23-2.75,2.75s1.23,2.75,2.75,2.75,2.75-1.23,2.75-2.75-1.23-2.75-2.75-2.75Z"/>
    <path class="st1" d="M473.67,67.06c-1.52,0-2.75,1.23-2.75,2.75s1.23,2.75,2.75,2.75,2.75-1.23,2.75-2.75-1.23-2.75-2.75-2.75Z"/>
    <path class="st1" d="M473.67,58.68c-1.52,0-2.75,1.23-2.75,2.75s1.23,2.75,2.75,2.75,2.75-1.23,2.75-2.75-1.23-2.75-2.75-2.75Z"/>
    <path class="st1" d="M473.67,50.3c-1.52,0-2.75,1.23-2.75,2.75s1.23,2.75,2.75,2.75,2.75-1.23,2.75-2.75-1.23-2.75-2.75-2.75Z"/>
    <circle class="st1" cx="481.33" cy="69.81" r="2.75"/>
    <circle class="st1" cx="481.33" cy="61.43" r="2.75"/>
    <path class="st1" d="M481.33,50.3c-1.52,0-2.75,1.23-2.75,2.75s1.23,2.75,2.75,2.75,2.75-1.23,2.75-2.75-1.23-2.75-2.75-2.75Z"/>
    <circle class="st1" cx="481.33" cy="44.66" r="2.75"/>
    <circle class="st1" cx="488.98" cy="69.81" r="2.75" transform="translate(-4.88 78.79) rotate(-9.17)"/>
    <circle class="st1" cx="488.98" cy="61.43" r="2.75" transform="translate(-3.54 78.68) rotate(-9.17)"/>
    <path class="st1" d="M488.98,50.3c-1.52,0-2.75,1.23-2.75,2.75s1.23,2.75,2.75,2.75,2.75-1.23,2.75-2.75-1.23-2.75-2.75-2.75Z"/>
    <circle class="st1" cx="488.98" cy="44.66" r="2.75" transform="translate(-.87 78.47) rotate(-9.17)"/>
    <circle class="st1" cx="496.64" cy="69.81" r="2.75"/>
    <circle class="st1" cx="496.64" cy="61.43" r="2.75"/>
    <path class="st1" d="M496.64,50.3c-1.52,0-2.75,1.23-2.75,2.75s1.23,2.75,2.75,2.75,2.75-1.23,2.75-2.75-1.23-2.75-2.75-2.75Z"/>
    <circle class="st1" cx="504.29" cy="69.81" r="2.75"/>
    <circle class="st1" cx="504.29" cy="61.43" r="2.75"/>
    <path class="st1" d="M504.29,50.3c-1.52,0-2.75,1.23-2.75,2.75s1.23,2.75,2.75,2.75,2.75-1.23,2.75-2.75-1.23-2.75-2.75-2.75Z"/>
    <circle class="st1" cx="511.94" cy="69.81" r="2.75"/>
    <circle class="st1" cx="511.94" cy="61.43" r="2.75"/>
    <path class="st1" d="M511.94,50.3c-1.52,0-2.75,1.23-2.75,2.75s1.23,2.75,2.75,2.75,2.75-1.23,2.75-2.75-1.23-2.75-2.75-2.75Z"/>
    <circle class="st1" cx="519.6" cy="69.81" r="2.75"/>
    <circle class="st1" cx="519.6" cy="61.43" r="2.75"/>
    <circle class="st1" cx="527.25" cy="69.81" r="2.75"/>
    <circle class="st1" cx="527.25" cy="61.43" r="2.75"/>
    <path class="st1" d="M527.25,55.79c1.52,0,2.75-1.23,2.75-2.75s-1.23-2.75-2.75-2.75-2.75,1.23-2.75,2.75,1.23,2.75,2.75,2.75Z"/>
    <path class="st1" d="M427.75,100.6c-.19,0-.37.02-.55.06-.27.05-.52.15-.76.28-.16.08-.3.18-.44.3-.61.5-1,1.27-1,2.12s.39,1.62,1,2.12c.14.11.28.21.44.3.23.13.49.22.76.28.18.04.36.06.55.06,1.52,0,2.75-1.23,2.75-2.75s-1.23-2.75-2.75-2.75Z"/>
    <path class="st1" d="M427.75,92.21c-.19,0-.37.02-.55.06-.27.05-.52.15-.76.28-.16.08-.3.18-.44.3-.61.5-1,1.27-1,2.12s.39,1.62,1,2.12c.14.11.28.21.44.3.23.13.49.22.76.28.18.04.36.06.55.06,1.52,0,2.75-1.23,2.75-2.75s-1.23-2.75-2.75-2.75Z"/>
    <path class="st1" d="M429.87,84.83c-.22-.27-.5-.5-.81-.67-.16-.08-.32-.15-.49-.21-.26-.08-.53-.12-.82-.12-.19,0-.37.02-.55.06-.12.03-.24.06-.36.1-.14.05-.27.11-.4.17-.16.08-.3.18-.44.3-.31.25-.55.57-.73.94-.03.06-.06.12-.08.18-.12.31-.19.65-.19,1,0,.85.39,1.62,1,2.12.14.11.28.21.44.3.23.13.49.22.76.28.18.04.36.06.55.06,1.52,0,2.75-1.23,2.75-2.75,0-.28-.04-.56-.12-.82-.11-.34-.28-.66-.5-.93Z"/>
    <path class="st1" d="M435.41,100.6c-1.52,0-2.75,1.23-2.75,2.75s1.23,2.75,2.75,2.75,2.75-1.23,2.75-2.75-1.23-2.75-2.75-2.75Z"/>
    <path class="st1" d="M435.41,92.21c-1.52,0-2.75,1.23-2.75,2.75s1.23,2.75,2.75,2.75,2.75-1.23,2.75-2.75-1.23-2.75-2.75-2.75Z"/>
    <path class="st1" d="M435.41,83.83c-1.52,0-2.75,1.23-2.75,2.75s1.23,2.75,2.75,2.75,2.75-1.23,2.75-2.75-1.23-2.75-2.75-2.75Z"/>
    <path class="st1" d="M430.38,77.38c-.08-.26-.2-.5-.35-.72-.1-.15-.21-.28-.34-.41-.5-.5-1.18-.8-1.94-.8-.19,0-.37.02-.55.06-.27.05-.52.15-.76.28-.16.08-.3.18-.44.3-.61.5-1,1.27-1,2.12s.39,1.62,1,2.12c.14.11.28.21.44.3.23.13.49.22.76.28.18.04.36.06.55.06.76,0,1.45-.31,1.94-.8.12-.12.24-.26.34-.41.15-.22.27-.46.35-.72.08-.26.12-.53.12-.82h0c0-.28-.04-.56-.12-.82Z"/>
    <path class="st1" d="M435.41,75.45c-1.52,0-2.75,1.23-2.75,2.75s1.23,2.75,2.75,2.75,2.75-1.23,2.75-2.75-1.23-2.75-2.75-2.75Z"/>
    <circle class="st1" cx="443.06" cy="103.35" r="2.75"/>
    <path class="st1" d="M443.06,92.21c-1.52,0-2.75,1.23-2.75,2.75s1.23,2.75,2.75,2.75,2.75-1.23,2.75-2.75-1.23-2.75-2.75-2.75Z"/>
    <circle class="st1" cx="443.06" cy="86.58" r="2.75"/>
    <circle class="st1" cx="443.06" cy="78.2" r="2.75"/>
    <circle class="st1" cx="450.71" cy="103.35" r="2.75"/>
    <path class="st1" d="M450.71,92.21c-1.52,0-2.75,1.23-2.75,2.75s1.23,2.75,2.75,2.75,2.75-1.23,2.75-2.75-1.23-2.75-2.75-2.75Z"/>
    <circle class="st1" cx="450.71" cy="86.58" r="2.75"/>
    <circle class="st1" cx="450.71" cy="78.2" r="2.75"/>
    <path class="st1" d="M458.37,100.6c-1.52,0-2.75,1.23-2.75,2.75s1.23,2.75,2.75,2.75,2.75-1.23,2.75-2.75-1.23-2.75-2.75-2.75Z"/>
    <path class="st1" d="M458.37,92.21c-1.52,0-2.75,1.23-2.75,2.75s1.23,2.75,2.75,2.75,2.75-1.23,2.75-2.75-1.23-2.75-2.75-2.75Z"/>
    <path class="st1" d="M458.37,83.83c-1.52,0-2.75,1.23-2.75,2.75s1.23,2.75,2.75,2.75,2.75-1.23,2.75-2.75-1.23-2.75-2.75-2.75Z"/>
    <path class="st1" d="M458.37,75.45c-1.52,0-2.75,1.23-2.75,2.75s1.23,2.75,2.75,2.75,2.75-1.23,2.75-2.75-1.23-2.75-2.75-2.75Z"/>
    <circle class="st1" cx="466.02" cy="103.35" r="2.75"/>
    <path class="st1" d="M466.02,92.21c-1.52,0-2.75,1.23-2.75,2.75s1.23,2.75,2.75,2.75,2.75-1.23,2.75-2.75-1.23-2.75-2.75-2.75Z"/>
    <circle class="st1" cx="466.02" cy="86.58" r="2.75"/>
    <circle class="st1" cx="466.02" cy="78.2" r="2.75"/>
    <path class="st1" d="M473.67,97.71c1.52,0,2.75-1.23,2.75-2.75s-1.23-2.75-2.75-2.75-2.75,1.23-2.75,2.75,1.23,2.75,2.75,2.75Z"/>
    <path class="st1" d="M473.67,89.33c1.52,0,2.75-1.23,2.75-2.75s-1.23-2.75-2.75-2.75-2.75,1.23-2.75,2.75,1.23,2.75,2.75,2.75Z"/>
    <path class="st1" d="M473.67,80.94c1.52,0,2.75-1.23,2.75-2.75s-1.23-2.75-2.75-2.75-2.75,1.23-2.75,2.75,1.23,2.75,2.75,2.75Z"/>
    <circle class="st1" cx="481.33" cy="103.35" r="2.75"/>
    <circle class="st1" cx="481.33" cy="86.58" r="2.75"/>
    <circle class="st1" cx="481.33" cy="78.2" r="2.75"/>
    <circle class="st1" cx="488.98" cy="86.58" r="2.75" transform="translate(-7.55 79) rotate(-9.17)"/>
    <circle class="st1" cx="488.98" cy="78.2" r="2.75" transform="translate(-6.21 78.9) rotate(-9.17)"/>
    <path class="st1" d="M427.75,134.13c-.19,0-.37.02-.55.06-.27.05-.52.15-.76.28-.16.08-.3.18-.44.3-.61.5-1,1.27-1,2.12s.39,1.62,1,2.12c.14.11.28.21.44.3.23.13.49.22.76.28.18.04.36.06.55.06,1.52,0,2.75-1.23,2.75-2.75s-1.23-2.75-2.75-2.75Z"/>
    <path class="st1" d="M427.75,125.75c-.19,0-.37.02-.55.06-.27.05-.52.15-.76.28-.16.08-.3.18-.44.3-.61.5-1,1.27-1,2.12s.39,1.62,1,2.12c.14.11.28.21.44.3.23.13.49.22.76.28.18.04.36.06.55.06,1.52,0,2.75-1.23,2.75-2.75s-1.23-2.75-2.75-2.75Z"/>
    <path class="st1" d="M427.75,117.36c-.19,0-.37.02-.55.06-.27.05-.52.15-.76.28-.16.08-.3.18-.44.3-.61.5-1,1.27-1,2.12s.39,1.62,1,2.12c.14.11.28.21.44.3.23.13.49.22.76.28.18.04.36.06.55.06,1.52,0,2.75-1.23,2.75-2.75s-1.23-2.75-2.75-2.75Z"/>
    <path class="st1" d="M435.41,134.13c-1.52,0-2.75,1.23-2.75,2.75s1.23,2.75,2.75,2.75,2.75-1.23,2.75-2.75-1.23-2.75-2.75-2.75Z"/>
    <path class="st1" d="M435.41,125.75c-1.52,0-2.75,1.23-2.75,2.75s1.23,2.75,2.75,2.75,2.75-1.23,2.75-2.75-1.23-2.75-2.75-2.75Z"/>
    <path class="st1" d="M435.41,117.36c-1.52,0-2.75,1.23-2.75,2.75s1.23,2.75,2.75,2.75,2.75-1.23,2.75-2.75-1.23-2.75-2.75-2.75Z"/>
    <path class="st1" d="M427.75,108.98c-.19,0-.37.02-.55.06-.27.05-.52.15-.76.28-.16.08-.3.18-.44.3-.61.5-1,1.27-1,2.12s.39,1.62,1,2.12c.14.11.28.21.44.3.23.13.49.22.76.28.18.04.36.06.55.06,1.52,0,2.75-1.23,2.75-2.75s-1.23-2.75-2.75-2.75Z"/>
    <path class="st1" d="M435.41,108.98c-1.52,0-2.75,1.23-2.75,2.75s1.23,2.75,2.75,2.75,2.75-1.23,2.75-2.75-1.23-2.75-2.75-2.75Z"/>
    <circle class="st1" cx="443.06" cy="136.88" r="2.75"/>
    <circle class="st1" cx="443.06" cy="128.49" r="2.75"/>
    <circle class="st1" cx="443.06" cy="120.11" r="2.75"/>
    <circle class="st1" cx="443.06" cy="111.73" r="2.75"/>
    <circle class="st1" cx="450.71" cy="136.88" r="2.75"/>
    <circle class="st1" cx="450.71" cy="128.49" r="2.75"/>
    <circle class="st1" cx="450.71" cy="120.11" r="2.75"/>
    <circle class="st1" cx="450.71" cy="111.73" r="2.75"/>
    <path class="st1" d="M458.37,125.75c-1.52,0-2.75,1.23-2.75,2.75s1.23,2.75,2.75,2.75,2.75-1.23,2.75-2.75-1.23-2.75-2.75-2.75Z"/>
    <path class="st1" d="M458.37,117.36c-1.52,0-2.75,1.23-2.75,2.75s1.23,2.75,2.75,2.75,2.75-1.23,2.75-2.75-1.23-2.75-2.75-2.75Z"/>
    <path class="st1" d="M458.37,108.98c-1.52,0-2.75,1.23-2.75,2.75s1.23,2.75,2.75,2.75,2.75-1.23,2.75-2.75-1.23-2.75-2.75-2.75Z"/>
    <circle class="st1" cx="466.02" cy="136.88" r="2.75"/>
    <circle class="st1" cx="466.02" cy="120.11" r="2.75"/>
    <circle class="st1" cx="466.02" cy="111.73" r="2.75"/>
    <path class="st1" d="M473.67,139.63c1.52,0,2.75-1.23,2.75-2.75s-1.23-2.75-2.75-2.75-2.75,1.23-2.75,2.75,1.23,2.75,2.75,2.75Z"/>
    <circle class="st1" cx="481.33" cy="128.49" r="2.75"/>
    <circle class="st1" cx="481.33" cy="120.11" r="2.75"/>
    <circle class="st1" cx="481.33" cy="111.73" r="2.75"/>
    <circle class="st1" cx="488.98" cy="120.11" r="2.75" transform="translate(-12.89 79.43) rotate(-9.17)"/>
    <circle class="st1" cx="496.64" cy="78.2" r="2.75"/>
    <circle class="st1" cx="504.29" cy="103.35" r="2.75"/>
    <path class="st1" d="M504.29,92.21c-1.52,0-2.75,1.23-2.75,2.75s1.23,2.75,2.75,2.75,2.75-1.23,2.75-2.75-1.23-2.75-2.75-2.75Z"/>
    <circle class="st1" cx="504.29" cy="86.58" r="2.75"/>
    <circle class="st1" cx="504.29" cy="78.2" r="2.75"/>
    <circle class="st1" cx="511.94" cy="86.58" r="2.75"/>
    <circle class="st1" cx="511.94" cy="78.2" r="2.75"/>
    <circle class="st1" cx="519.6" cy="78.2" r="2.75"/>
    <circle class="st1" cx="527.25" cy="78.2" r="2.75"/>
    <circle class="st1" cx="305.29" cy="220.71" r="2.75"/>
    <path class="st1" d="M305.29,209.58c-1.52,0-2.75,1.23-2.75,2.75s1.23,2.75,2.75,2.75,2.75-1.23,2.75-2.75-1.23-2.75-2.75-2.75Z"/>
    <circle class="st1" cx="312.95" cy="229.09" r="2.75"/>
    <circle class="st1" cx="312.95" cy="220.71" r="2.75"/>
    <path class="st1" d="M312.95,209.58c-1.52,0-2.75,1.23-2.75,2.75s1.23,2.75,2.75,2.75,2.75-1.23,2.75-2.75-1.23-2.75-2.75-2.75Z"/>
    <circle class="st1" cx="305.29" cy="203.94" r="2.75"/>
    <path class="st1" d="M305.29,192.81c-1.52,0-2.75,1.23-2.75,2.75s1.23,2.75,2.75,2.75,2.75-1.23,2.75-2.75-1.23-2.75-2.75-2.75Z"/>
    <circle class="st1" cx="312.95" cy="203.94" r="2.75"/>
    <path class="st1" d="M312.95,192.81c-1.52,0-2.75,1.23-2.75,2.75s1.23,2.75,2.75,2.75,2.75-1.23,2.75-2.75-1.23-2.75-2.75-2.75Z"/>
    <circle class="st1" cx="320.6" cy="229.09" r="2.75"/>
    <circle class="st1" cx="320.6" cy="220.71" r="2.75"/>
    <path class="st1" d="M320.6,209.58c-1.52,0-2.75,1.23-2.75,2.75s1.23,2.75,2.75,2.75,2.75-1.23,2.75-2.75-1.23-2.75-2.75-2.75Z"/>
    <circle class="st1" cx="320.6" cy="203.94" r="2.75"/>
    <path class="st1" d="M320.6,192.81c-1.52,0-2.75,1.23-2.75,2.75s1.23,2.75,2.75,2.75,2.75-1.23,2.75-2.75-1.23-2.75-2.75-2.75Z"/>
    <circle class="st1" cx="328.25" cy="229.09" r="2.75"/>
    <circle class="st1" cx="328.25" cy="220.71" r="2.75"/>
    <path class="st1" d="M328.25,209.58c-1.52,0-2.75,1.23-2.75,2.75s1.23,2.75,2.75,2.75,2.75-1.23,2.75-2.75-1.23-2.75-2.75-2.75Z"/>
    <circle class="st1" cx="328.25" cy="203.94" r="2.75"/>
    <path class="st1" d="M328.25,192.81c-1.52,0-2.75,1.23-2.75,2.75s1.23,2.75,2.75,2.75,2.75-1.23,2.75-2.75-1.23-2.75-2.75-2.75Z"/>
    <path class="st1" d="M335.91,217.96c-1.52,0-2.75,1.23-2.75,2.75s1.23,2.75,2.75,2.75,2.75-1.23,2.75-2.75-1.23-2.75-2.75-2.75Z"/>
    <path class="st1" d="M335.91,209.58c-1.52,0-2.75,1.23-2.75,2.75s1.23,2.75,2.75,2.75,2.75-1.23,2.75-2.75-1.23-2.75-2.75-2.75Z"/>
    <path class="st1" d="M335.91,201.19c-1.52,0-2.75,1.23-2.75,2.75s1.23,2.75,2.75,2.75,2.75-1.23,2.75-2.75-1.23-2.75-2.75-2.75Z"/>
    <path class="st1" d="M335.91,192.81c-1.52,0-2.75,1.23-2.75,2.75s1.23,2.75,2.75,2.75,2.75-1.23,2.75-2.75-1.23-2.75-2.75-2.75Z"/>
    <circle class="st1" cx="343.56" cy="203.94" r="2.75"/>
    <path class="st1" d="M343.56,192.81c-1.52,0-2.75,1.23-2.75,2.75s1.23,2.75,2.75,2.75,2.75-1.23,2.75-2.75-1.23-2.75-2.75-2.75Z"/>
    <circle class="st1" cx="351.21" cy="220.71" r="2.75" transform="translate(-57.92 152.38) rotate(-22.66)"/>
    <path class="st1" d="M351.21,209.58c-1.52,0-2.75,1.23-2.75,2.75s1.23,2.75,2.75,2.75,2.75-1.23,2.75-2.75-1.23-2.75-2.75-2.75Z"/>
    <path class="st1" d="M358.87,209.58c-1.52,0-2.75,1.23-2.75,2.75s1.23,2.75,2.75,2.75,2.75-1.23,2.75-2.75-1.23-2.75-2.75-2.75Z"/>
    <circle class="st1" cx="358.87" cy="203.94" r="2.75"/>
    <circle class="st1" cx="305.29" cy="162.03" r="2.75"/>
    <path class="st1" d="M305.29,150.9c-1.52,0-2.75,1.23-2.75,2.75s1.23,2.75,2.75,2.75,2.75-1.23,2.75-2.75-1.23-2.75-2.75-2.75Z"/>
    <circle class="st1" cx="305.29" cy="145.26" r="2.75"/>
    <circle class="st1" cx="312.95" cy="162.03" r="2.75"/>
    <path class="st1" d="M312.95,150.9c-1.52,0-2.75,1.23-2.75,2.75s1.23,2.75,2.75,2.75,2.75-1.23,2.75-2.75-1.23-2.75-2.75-2.75Z"/>
    <circle class="st1" cx="312.95" cy="145.26" r="2.75"/>
    <circle class="st1" cx="320.6" cy="162.03" r="2.75"/>
    <path class="st1" d="M320.6,150.9c-1.52,0-2.75,1.23-2.75,2.75s1.23,2.75,2.75,2.75,2.75-1.23,2.75-2.75-1.23-2.75-2.75-2.75Z"/>
    <circle class="st1" cx="320.6" cy="145.26" r="2.75"/>
    <circle class="st1" cx="328.25" cy="162.03" r="2.75"/>
    <path class="st1" d="M328.25,150.9c-1.52,0-2.75,1.23-2.75,2.75s1.23,2.75,2.75,2.75,2.75-1.23,2.75-2.75-1.23-2.75-2.75-2.75Z"/>
    <circle class="st1" cx="328.25" cy="145.26" r="2.75"/>
    <path class="st1" d="M335.91,159.28c-1.52,0-2.75,1.23-2.75,2.75s1.23,2.75,2.75,2.75,2.75-1.23,2.75-2.75-1.23-2.75-2.75-2.75Z"/>
    <path class="st1" d="M335.91,150.9c-1.52,0-2.75,1.23-2.75,2.75s1.23,2.75,2.75,2.75,2.75-1.23,2.75-2.75-1.23-2.75-2.75-2.75Z"/>
    <path class="st1" d="M335.91,142.51c-1.52,0-2.75,1.23-2.75,2.75s1.23,2.75,2.75,2.75,2.75-1.23,2.75-2.75-1.23-2.75-2.75-2.75Z"/>
    <path class="st1" d="M343.56,150.9c-1.52,0-2.75,1.23-2.75,2.75s1.23,2.75,2.75,2.75,2.75-1.23,2.75-2.75-1.23-2.75-2.75-2.75Z"/>
    <circle class="st1" cx="343.56" cy="145.26" r="2.75"/>
    <circle class="st1" cx="351.21" cy="162.03" r="2.75" transform="translate(-35.31 147.85) rotate(-22.66)"/>
    <path class="st1" d="M351.21,150.9c-1.52,0-2.75,1.23-2.75,2.75s1.23,2.75,2.75,2.75,2.75-1.23,2.75-2.75-1.23-2.75-2.75-2.75Z"/>
    <circle class="st1" cx="351.21" cy="145.26" r="2.75" transform="translate(-28.85 146.55) rotate(-22.66)"/>
    <circle class="st1" cx="358.87" cy="162.03" r="2.75"/>
    <path class="st1" d="M358.87,150.9c-1.52,0-2.75,1.23-2.75,2.75s1.23,2.75,2.75,2.75,2.75-1.23,2.75-2.75-1.23-2.75-2.75-2.75Z"/>
    <circle class="st1" cx="358.87" cy="145.26" r="2.75"/>
    <circle class="st1" cx="366.52" cy="162.03" r="2.75" transform="translate(-21.11 60.37) rotate(-9.15)"/>
    <path class="st1" d="M366.52,150.9c-1.52,0-2.75,1.23-2.75,2.75s1.23,2.75,2.75,2.75,2.75-1.23,2.75-2.75-1.23-2.75-2.75-2.75Z"/>
    <circle class="st1" cx="366.52" cy="145.26" r="2.75" transform="translate(-18.44 60.16) rotate(-9.15)"/>
    <circle class="st1" cx="305.29" cy="187.18" r="2.75"/>
    <circle class="st1" cx="305.29" cy="178.79" r="2.75"/>
    <circle class="st1" cx="312.95" cy="187.18" r="2.75"/>
    <circle class="st1" cx="312.95" cy="178.79" r="2.75"/>
    <path class="st1" d="M305.29,167.66c-1.52,0-2.75,1.23-2.75,2.75s1.23,2.75,2.75,2.75,2.75-1.23,2.75-2.75-1.23-2.75-2.75-2.75Z"/>
    <path class="st1" d="M312.95,167.66c-1.52,0-2.75,1.23-2.75,2.75s1.23,2.75,2.75,2.75,2.75-1.23,2.75-2.75-1.23-2.75-2.75-2.75Z"/>
    <circle class="st1" cx="320.6" cy="187.18" r="2.75"/>
    <circle class="st1" cx="320.6" cy="178.79" r="2.75"/>
    <path class="st1" d="M320.6,167.66c-1.52,0-2.75,1.23-2.75,2.75s1.23,2.75,2.75,2.75,2.75-1.23,2.75-2.75-1.23-2.75-2.75-2.75Z"/>
    <circle class="st1" cx="328.25" cy="187.18" r="2.75"/>
    <circle class="st1" cx="328.25" cy="178.79" r="2.75"/>
    <path class="st1" d="M328.25,167.66c-1.52,0-2.75,1.23-2.75,2.75s1.23,2.75,2.75,2.75,2.75-1.23,2.75-2.75-1.23-2.75-2.75-2.75Z"/>
    <path class="st1" d="M335.91,184.43c-1.52,0-2.75,1.23-2.75,2.75s1.23,2.75,2.75,2.75,2.75-1.23,2.75-2.75-1.23-2.75-2.75-2.75Z"/>
    <path class="st1" d="M335.91,176.04c-1.52,0-2.75,1.23-2.75,2.75s1.23,2.75,2.75,2.75,2.75-1.23,2.75-2.75-1.23-2.75-2.75-2.75Z"/>
    <path class="st1" d="M335.91,167.66c-1.52,0-2.75,1.23-2.75,2.75s1.23,2.75,2.75,2.75,2.75-1.23,2.75-2.75-1.23-2.75-2.75-2.75Z"/>
    <circle class="st1" cx="343.56" cy="187.18" r="2.75"/>
    <circle class="st1" cx="343.56" cy="178.79" r="2.75"/>
    <path class="st1" d="M343.56,167.66c-1.52,0-2.75,1.23-2.75,2.75s1.23,2.75,2.75,2.75,2.75-1.23,2.75-2.75-1.23-2.75-2.75-2.75Z"/>
    <circle class="st1" cx="351.21" cy="178.79" r="2.75" transform="translate(-41.77 149.14) rotate(-22.66)"/>
    <path class="st1" d="M351.21,167.66c-1.52,0-2.75,1.23-2.75,2.75s1.23,2.75,2.75,2.75,2.75-1.23,2.75-2.75-1.23-2.75-2.75-2.75Z"/>
    <path class="st1" d="M358.87,167.66c-1.52,0-2.75,1.23-2.75,2.75s1.23,2.75,2.75,2.75,2.75-1.23,2.75-2.75-1.23-2.75-2.75-2.75Z"/>
    <path class="st1" d="M374.18,142.51c-1.52,0-2.75,1.23-2.75,2.75s1.23,2.75,2.75,2.75,2.75-1.23,2.75-2.75-1.23-2.75-2.75-2.75Z"/>
    <path class="st1" d="M381.83,150.9c-1.52,0-2.75,1.23-2.75,2.75s1.23,2.75,2.75,2.75,2.75-1.23,2.75-2.75-1.23-2.75-2.75-2.75Z"/>
    <circle class="st1" cx="381.83" cy="145.26" r="2.75"/>
    <circle class="st1" cx="389.48" cy="162.03" r="2.75"/>
    <path class="st1" d="M389.48,150.9c-1.52,0-2.75,1.23-2.75,2.75s1.23,2.75,2.75,2.75,2.75-1.23,2.75-2.75-1.23-2.75-2.75-2.75Z"/>
    <circle class="st1" cx="389.48" cy="145.26" r="2.75"/>
    <circle class="st1" cx="397.14" cy="162.03" r="2.75"/>
    <path class="st1" d="M397.14,150.9c-1.52,0-2.75,1.23-2.75,2.75s1.23,2.75,2.75,2.75,2.75-1.23,2.75-2.75-1.23-2.75-2.75-2.75Z"/>
    <circle class="st1" cx="397.14" cy="145.26" r="2.75"/>
    <circle class="st1" cx="404.79" cy="162.03" r="2.75"/>
    <path class="st1" d="M404.79,150.9c-1.52,0-2.75,1.23-2.75,2.75s1.23,2.75,2.75,2.75,2.75-1.23,2.75-2.75-1.23-2.75-2.75-2.75Z"/>
    <circle class="st1" cx="404.79" cy="145.26" r="2.75"/>
    <path class="st1" d="M412.44,150.9c-1.52,0-2.75,1.23-2.75,2.75s1.23,2.75,2.75,2.75,2.75-1.23,2.75-2.75-1.23-2.75-2.75-2.75Z"/>
    <circle class="st1" cx="412.44" cy="145.26" r="2.75"/>
    <circle class="st1" cx="420.1" cy="162.03" r="2.75" transform="translate(-30 174.23) rotate(-22.64)"/>
    <path class="st1" d="M420.1,150.9c-1.52,0-2.75,1.23-2.75,2.75s1.23,2.75,2.75,2.75,2.75-1.23,2.75-2.75-1.23-2.75-2.75-2.75Z"/>
    <circle class="st1" cx="420.1" cy="145.26" r="2.75" transform="translate(-23.54 172.93) rotate(-22.64)"/>
    <path class="st1" d="M389.48,167.66c-1.52,0-2.75,1.23-2.75,2.75s1.23,2.75,2.75,2.75,2.75-1.23,2.75-2.75-1.23-2.75-2.75-2.75Z"/>
    <circle class="st1" cx="397.14" cy="178.79" r="2.75"/>
    <path class="st1" d="M397.14,167.66c-1.52,0-2.75,1.23-2.75,2.75s1.23,2.75,2.75,2.75,2.75-1.23,2.75-2.75-1.23-2.75-2.75-2.75Z"/>
    <circle class="st1" cx="420.1" cy="178.79" r="2.75" transform="translate(-36.45 175.52) rotate(-22.64)"/>
    <path class="st1" d="M435.41,192.81c-1.52,0-2.75,1.23-2.75,2.75s1.23,2.75,2.75,2.75,2.75-1.23,2.75-2.75-1.23-2.75-2.75-2.75Z"/>
    <path class="st1" d="M443.06,226.34c-1.52,0-2.75,1.23-2.75,2.75s1.23,2.75,2.75,2.75,2.75-1.23,2.75-2.75-1.23-2.75-2.75-2.75Z"/>
    <circle class="st1" cx="443.06" cy="220.71" r="2.75"/>
    <path class="st1" d="M443.06,192.81c-1.52,0-2.75,1.23-2.75,2.75s1.23,2.75,2.75,2.75,2.75-1.23,2.75-2.75-1.23-2.75-2.75-2.75Z"/>
    <path class="st1" d="M450.71,226.34c-1.52,0-2.75,1.23-2.75,2.75s1.23,2.75,2.75,2.75,2.75-1.23,2.75-2.75-1.23-2.75-2.75-2.75Z"/>
    <circle class="st1" cx="450.71" cy="220.71" r="2.75"/>
    <path class="st1" d="M450.71,209.58c-1.52,0-2.75,1.23-2.75,2.75s1.23,2.75,2.75,2.75,2.75-1.23,2.75-2.75-1.23-2.75-2.75-2.75Z"/>
    <path class="st1" d="M450.71,192.81c-1.52,0-2.75,1.23-2.75,2.75s1.23,2.75,2.75,2.75,2.75-1.23,2.75-2.75-1.23-2.75-2.75-2.75Z"/>
    <path class="st1" d="M458.37,226.34c-1.52,0-2.75,1.23-2.75,2.75s1.23,2.75,2.75,2.75,2.75-1.23,2.75-2.75-1.23-2.75-2.75-2.75Z"/>
    <path class="st1" d="M458.37,217.96c-1.52,0-2.75,1.23-2.75,2.75s1.23,2.75,2.75,2.75,2.75-1.23,2.75-2.75-1.23-2.75-2.75-2.75Z"/>
    <path class="st1" d="M458.37,209.58c-1.52,0-2.75,1.23-2.75,2.75s1.23,2.75,2.75,2.75,2.75-1.23,2.75-2.75-1.23-2.75-2.75-2.75Z"/>
    <path class="st1" d="M458.37,201.19c-1.52,0-2.75,1.23-2.75,2.75s1.23,2.75,2.75,2.75,2.75-1.23,2.75-2.75-1.23-2.75-2.75-2.75Z"/>
    <path class="st1" d="M466.02,226.34c-1.52,0-2.75,1.23-2.75,2.75s1.23,2.75,2.75,2.75,2.75-1.23,2.75-2.75-1.23-2.75-2.75-2.75Z"/>
    <circle class="st1" cx="466.02" cy="220.71" r="2.75"/>
    <path class="st1" d="M466.02,209.58c-1.52,0-2.75,1.23-2.75,2.75s1.23,2.75,2.75,2.75,2.75-1.23,2.75-2.75-1.23-2.75-2.75-2.75Z"/>
    <circle class="st1" cx="466.02" cy="203.94" r="2.75"/>
    <path class="st1" d="M473.67,226.34c-1.52,0-2.75,1.23-2.75,2.75s1.23,2.75,2.75,2.75,2.75-1.23,2.75-2.75-1.23-2.75-2.75-2.75Z"/>
    <path class="st1" d="M473.67,217.96c-1.52,0-2.75,1.23-2.75,2.75s1.23,2.75,2.75,2.75,2.75-1.23,2.75-2.75-1.23-2.75-2.75-2.75Z"/>
    <path class="st1" d="M473.67,209.58c-1.52,0-2.75,1.23-2.75,2.75s1.23,2.75,2.75,2.75,2.75-1.23,2.75-2.75-1.23-2.75-2.75-2.75Z"/>
    <path class="st1" d="M473.67,192.81c-1.52,0-2.75,1.23-2.75,2.75s1.23,2.75,2.75,2.75,2.75-1.23,2.75-2.75-1.23-2.75-2.75-2.75Z"/>
    <path class="st1" d="M481.33,226.34c-1.52,0-2.75,1.23-2.75,2.75s1.23,2.75,2.75,2.75,2.75-1.23,2.75-2.75-1.23-2.75-2.75-2.75Z"/>
    <circle class="st1" cx="481.33" cy="220.71" r="2.75"/>
    <path class="st1" d="M481.33,209.58c-1.52,0-2.75,1.23-2.75,2.75s1.23,2.75,2.75,2.75,2.75-1.23,2.75-2.75-1.23-2.75-2.75-2.75Z"/>
    <circle class="st1" cx="481.33" cy="203.94" r="2.75"/>
    <path class="st1" d="M481.33,192.81c-1.52,0-2.75,1.23-2.75,2.75s1.23,2.75,2.75,2.75,2.75-1.23,2.75-2.75-1.23-2.75-2.75-2.75Z"/>
    <path class="st1" d="M488.98,226.34c-1.52,0-2.75,1.23-2.75,2.75s1.23,2.75,2.75,2.75,2.75-1.23,2.75-2.75-1.23-2.75-2.75-2.75Z"/>
    <circle class="st1" cx="488.98" cy="220.71" r="2.75" transform="translate(-28.92 80.72) rotate(-9.17)"/>
    <path class="st1" d="M488.98,209.58c-1.52,0-2.75,1.23-2.75,2.75s1.23,2.75,2.75,2.75,2.75-1.23,2.75-2.75-1.23-2.75-2.75-2.75Z"/>
    <path class="st1" d="M488.98,192.81c-1.52,0-2.75,1.23-2.75,2.75s1.23,2.75,2.75,2.75,2.75-1.23,2.75-2.75-1.23-2.75-2.75-2.75Z"/>
    <circle class="st1" cx="443.06" cy="237.47" r="2.75"/>
    <circle class="st1" cx="450.71" cy="237.47" r="2.75"/>
    <circle class="st1" cx="481.33" cy="237.47" r="2.75"/>
    <circle class="st1" cx="488.98" cy="254.24" r="2.75" transform="translate(-34.26 81.15) rotate(-9.17)"/>
    <circle class="st1" cx="488.98" cy="237.47" r="2.75" transform="translate(-31.59 80.93) rotate(-9.17)"/>
    <path class="st1" d="M496.64,226.34c-1.52,0-2.75,1.23-2.75,2.75s1.23,2.75,2.75,2.75,2.75-1.23,2.75-2.75-1.23-2.75-2.75-2.75Z"/>
    <circle class="st1" cx="496.64" cy="220.71" r="2.75"/>
    <path class="st1" d="M496.64,192.81c-1.52,0-2.75,1.23-2.75,2.75s1.23,2.75,2.75,2.75,2.75-1.23,2.75-2.75-1.23-2.75-2.75-2.75Z"/>
    <circle class="st1" cx="496.64" cy="237.47" r="2.75"/>
    <circle class="st1" cx="519.6" cy="254.24" r="2.75"/>
    <circle class="st1" cx="527.25" cy="245.86" r="2.75"/>
    <circle class="st1" cx="527.25" cy="237.47" r="2.75"/>
    <path class="st1" d="M427.75,159.28c-1.52,0-2.75,1.23-2.75,2.75,0,.38.08.74.22,1.07.1.25.24.47.41.68.22.27.5.5.81.67.16.08.32.15.49.21.26.08.53.12.82.12s.56-.04.82-.12c.17-.05.34-.12.49-.21.31-.17.59-.4.81-.67.17-.2.31-.43.41-.68.14-.33.22-.69.22-1.07,0-1.52-1.23-2.75-2.75-2.75Z"/>
    <path class="st1" d="M427.75,150.9c-1.52,0-2.75,1.23-2.75,2.75s1.23,2.75,2.75,2.75,2.75-1.23,2.75-2.75-1.23-2.75-2.75-2.75Z"/>
    <circle class="st1" cx="427.75" cy="145.26" r="2.75"/>
    <path class="st1" d="M435.41,159.28c-1.52,0-2.75,1.23-2.75,2.75s1.23,2.75,2.75,2.75,2.75-1.23,2.75-2.75-1.23-2.75-2.75-2.75Z"/>
    <path class="st1" d="M435.41,150.9c-1.52,0-2.75,1.23-2.75,2.75s1.23,2.75,2.75,2.75,2.75-1.23,2.75-2.75-1.23-2.75-2.75-2.75Z"/>
    <path class="st1" d="M435.41,142.51c-1.52,0-2.75,1.23-2.75,2.75s1.23,2.75,2.75,2.75,2.75-1.23,2.75-2.75-1.23-2.75-2.75-2.75Z"/>
    <path class="st1" d="M443.06,150.9c-1.52,0-2.75,1.23-2.75,2.75s1.23,2.75,2.75,2.75,2.75-1.23,2.75-2.75-1.23-2.75-2.75-2.75Z"/>
    <circle class="st1" cx="443.06" cy="145.26" r="2.75"/>
    <circle class="st1" cx="450.71" cy="162.03" r="2.75"/>
    <path class="st1" d="M450.71,150.9c-1.52,0-2.75,1.23-2.75,2.75s1.23,2.75,2.75,2.75,2.75-1.23,2.75-2.75-1.23-2.75-2.75-2.75Z"/>
    <circle class="st1" cx="450.71" cy="145.26" r="2.75"/>
    <circle class="st1" cx="466.02" cy="145.26" r="2.75"/>
    <circle class="st1" cx="427.75" cy="187.18" r="2.75"/>
    <path class="st1" d="M430.38,169.59c-.08-.26-.2-.5-.35-.72-.1-.15-.21-.28-.34-.41-.5-.5-1.18-.8-1.94-.8s-1.45.31-1.94.8c-.12.12-.24.26-.34.41-.15.22-.27.46-.35.72-.08.26-.12.53-.12.82h0c0,.28.04.56.12.82.08.26.2.5.35.72.1.15.21.28.34.41.5.5,1.18.8,1.94.8s1.45-.31,1.94-.8c.12-.12.24-.26.34-.41.15-.22.27-.46.35-.72s.12-.53.12-.82h0c0-.28-.04-.56-.12-.82Z"/>
    <path class="st1" d="M435.41,167.66c-1.52,0-2.75,1.23-2.75,2.75s1.23,2.75,2.75,2.75,2.75-1.23,2.75-2.75-1.23-2.75-2.75-2.75Z"/>
    <circle class="st1" cx="443.06" cy="187.18" r="2.75"/>
    <circle class="st1" cx="450.71" cy="187.18" r="2.75"/>
    <circle class="st1" cx="450.71" cy="178.79" r="2.75"/>
    <path class="st1" d="M450.71,167.66c-1.52,0-2.75,1.23-2.75,2.75s1.23,2.75,2.75,2.75,2.75-1.23,2.75-2.75-1.23-2.75-2.75-2.75Z"/>
    <path class="st1" d="M458.37,176.04c-1.52,0-2.75,1.23-2.75,2.75s1.23,2.75,2.75,2.75,2.75-1.23,2.75-2.75-1.23-2.75-2.75-2.75Z"/>
    <path class="st1" d="M458.37,167.66c-1.52,0-2.75,1.23-2.75,2.75s1.23,2.75,2.75,2.75,2.75-1.23,2.75-2.75-1.23-2.75-2.75-2.75Z"/>
    <circle class="st1" cx="466.02" cy="187.18" r="2.75"/>
    <circle class="st1" cx="481.33" cy="187.18" r="2.75"/>
    <circle class="st1" cx="496.64" cy="187.18" r="2.75"/>
    <circle class="st1" cx="68.02" cy="69.81" r="2.75"/>
    <path class="st1" d="M68.02,50.3c-1.52,0-2.75,1.23-2.75,2.75s1.23,2.75,2.75,2.75,2.75-1.23,2.75-2.75-1.23-2.75-2.75-2.75Z"/>
    <path class="st1" d="M75.68,67.06c-1.52,0-2.75,1.23-2.75,2.75s1.23,2.75,2.75,2.75,2.75-1.23,2.75-2.75-1.23-2.75-2.75-2.75Z"/>
    <path class="st1" d="M75.68,58.68c-1.52,0-2.75,1.23-2.75,2.75s1.23,2.75,2.75,2.75,2.75-1.23,2.75-2.75-1.23-2.75-2.75-2.75Z"/>
    <path class="st1" d="M75.68,50.3c-1.52,0-2.75,1.23-2.75,2.75s1.23,2.75,2.75,2.75,2.75-1.23,2.75-2.75-1.23-2.75-2.75-2.75Z"/>
    <path class="st1" d="M75.68,41.92c-1.52,0-2.75,1.23-2.75,2.75s1.23,2.75,2.75,2.75,2.75-1.23,2.75-2.75-1.23-2.75-2.75-2.75Z"/>
    <path class="st1" d="M83.33,67.06c-1.52,0-2.75,1.23-2.75,2.75s1.23,2.75,2.75,2.75,2.75-1.23,2.75-2.75-1.23-2.75-2.75-2.75Z"/>
    <path class="st1" d="M83.33,58.68c-1.52,0-2.75,1.23-2.75,2.75s1.23,2.75,2.75,2.75,2.75-1.23,2.75-2.75-1.23-2.75-2.75-2.75Z"/>
    <path class="st1" d="M83.33,50.3c-1.52,0-2.75,1.23-2.75,2.75s1.23,2.75,2.75,2.75,2.75-1.23,2.75-2.75-1.23-2.75-2.75-2.75Z"/>
    <path class="st1" d="M83.33,41.92c-1.52,0-2.75,1.23-2.75,2.75s1.23,2.75,2.75,2.75,2.75-1.23,2.75-2.75-1.23-2.75-2.75-2.75Z"/>
    <circle class="st1" cx="90.99" cy="69.81" r="2.75"/>
    <circle class="st1" cx="90.99" cy="61.43" r="2.75"/>
    <path class="st1" d="M90.99,50.3c-1.52,0-2.75,1.23-2.75,2.75s1.23,2.75,2.75,2.75,2.75-1.23,2.75-2.75-1.23-2.75-2.75-2.75Z"/>
    <path class="st1" d="M98.64,67.06c-1.52,0-2.75,1.23-2.75,2.75s1.23,2.75,2.75,2.75,2.75-1.23,2.75-2.75-1.23-2.75-2.75-2.75Z"/>
    <path class="st1" d="M98.64,58.68c-1.52,0-2.75,1.23-2.75,2.75s1.23,2.75,2.75,2.75,2.75-1.23,2.75-2.75-1.23-2.75-2.75-2.75Z"/>
    <path class="st1" d="M98.64,50.3c-1.52,0-2.75,1.23-2.75,2.75s1.23,2.75,2.75,2.75,2.75-1.23,2.75-2.75-1.23-2.75-2.75-2.75Z"/>
    <circle class="st1" cx="106.29" cy="69.81" r="2.75"/>
    <circle class="st1" cx="106.29" cy="61.43" r="2.75"/>
    <circle class="st1" cx="113.95" cy="69.81" r="2.75"/>
    <circle class="st1" cx="113.95" cy="61.43" r="2.75"/>
    <path class="st1" d="M113.95,50.3c-1.52,0-2.75,1.23-2.75,2.75s1.23,2.75,2.75,2.75,2.75-1.23,2.75-2.75-1.23-2.75-2.75-2.75Z"/>
    <path class="st1" d="M121.6,67.06c-1.52,0-2.75,1.23-2.75,2.75s1.23,2.75,2.75,2.75,2.75-1.23,2.75-2.75-1.23-2.75-2.75-2.75Z"/>
    <path class="st1" d="M121.6,58.68c-1.52,0-2.75,1.23-2.75,2.75s1.23,2.75,2.75,2.75,2.75-1.23,2.75-2.75-1.23-2.75-2.75-2.75Z"/>
    <path class="st1" d="M121.6,50.3c-1.52,0-2.75,1.23-2.75,2.75s1.23,2.75,2.75,2.75,2.75-1.23,2.75-2.75-1.23-2.75-2.75-2.75Z"/>
    <path class="st1" d="M121.6,41.92c-1.52,0-2.75,1.23-2.75,2.75s1.23,2.75,2.75,2.75,2.75-1.23,2.75-2.75-1.23-2.75-2.75-2.75Z"/>
    <circle class="st1" cx="129.25" cy="69.81" r="2.75"/>
    <circle class="st1" cx="129.25" cy="61.43" r="2.75"/>
    <path class="st1" d="M129.25,50.3c-1.52,0-2.75,1.23-2.75,2.75s1.23,2.75,2.75,2.75,2.75-1.23,2.75-2.75-1.23-2.75-2.75-2.75Z"/>
    <circle class="st1" cx="129.25" cy="44.66" r="2.75"/>
    <path class="st1" d="M136.91,67.06c-1.52,0-2.75,1.23-2.75,2.75s1.23,2.75,2.75,2.75,2.75-1.23,2.75-2.75-1.23-2.75-2.75-2.75Z"/>
    <path class="st1" d="M136.91,58.68c-1.52,0-2.75,1.23-2.75,2.75s1.23,2.75,2.75,2.75,2.75-1.23,2.75-2.75-1.23-2.75-2.75-2.75Z"/>
    <path class="st1" d="M144.56,67.06c-1.52,0-2.75,1.23-2.75,2.75s1.23,2.75,2.75,2.75,2.75-1.23,2.75-2.75-1.23-2.75-2.75-2.75Z"/>
    <path class="st1" d="M144.56,58.68c-1.52,0-2.75,1.23-2.75,2.75s1.23,2.75,2.75,2.75,2.75-1.23,2.75-2.75-1.23-2.75-2.75-2.75Z"/>
    <circle class="st1" cx="152.22" cy="69.81" r="2.75"/>
    <circle class="st1" cx="152.22" cy="61.43" r="2.75"/>
    <path class="st1" d="M152.22,50.3c-1.52,0-2.75,1.23-2.75,2.75s1.23,2.75,2.75,2.75,2.75-1.23,2.75-2.75-1.23-2.75-2.75-2.75Z"/>
    <circle class="st1" cx="159.87" cy="69.81" r="2.75"/>
    <circle class="st1" cx="159.87" cy="61.43" r="2.75"/>
    <path class="st1" d="M159.87,50.3c-1.52,0-2.75,1.23-2.75,2.75s1.23,2.75,2.75,2.75,2.75-1.23,2.75-2.75-1.23-2.75-2.75-2.75Z"/>
    <circle class="st1" cx="159.87" cy="44.66" r="2.75"/>
    <circle class="st1" cx="167.52" cy="69.81" r="2.75"/>
    <circle class="st1" cx="167.52" cy="61.43" r="2.75"/>
    <path class="st1" d="M167.52,50.3c-1.52,0-2.75,1.23-2.75,2.75s1.23,2.75,2.75,2.75,2.75-1.23,2.75-2.75-1.23-2.75-2.75-2.75Z"/>
    <circle class="st1" cx="167.52" cy="44.66" r="2.75"/>
    <circle class="st1" cx="175.18" cy="69.81" r="2.75"/>
    <circle class="st1" cx="175.18" cy="61.43" r="2.75"/>
    <path class="st1" d="M175.18,50.3c-1.52,0-2.75,1.23-2.75,2.75s1.23,2.75,2.75,2.75,2.75-1.23,2.75-2.75-1.23-2.75-2.75-2.75Z"/>
    <path class="st1" d="M68.02,92.21c-1.52,0-2.75,1.23-2.75,2.75s1.23,2.75,2.75,2.75,2.75-1.23,2.75-2.75-1.23-2.75-2.75-2.75Z"/>
    <circle class="st1" cx="68.02" cy="86.58" r="2.75"/>
    <path class="st1" d="M75.68,92.21c-1.52,0-2.75,1.23-2.75,2.75s1.23,2.75,2.75,2.75,2.75-1.23,2.75-2.75-1.23-2.75-2.75-2.75Z"/>
    <path class="st1" d="M75.68,83.83c-1.52,0-2.75,1.23-2.75,2.75s1.23,2.75,2.75,2.75,2.75-1.23,2.75-2.75-1.23-2.75-2.75-2.75Z"/>
    <path class="st1" d="M75.68,75.45c-1.52,0-2.75,1.23-2.75,2.75s1.23,2.75,2.75,2.75,2.75-1.23,2.75-2.75-1.23-2.75-2.75-2.75Z"/>
    <path class="st1" d="M83.33,83.83c-1.52,0-2.75,1.23-2.75,2.75s1.23,2.75,2.75,2.75,2.75-1.23,2.75-2.75-1.23-2.75-2.75-2.75Z"/>
    <path class="st1" d="M83.33,75.45c-1.52,0-2.75,1.23-2.75,2.75s1.23,2.75,2.75,2.75,2.75-1.23,2.75-2.75-1.23-2.75-2.75-2.75Z"/>
    <circle class="st1" cx="90.99" cy="86.58" r="2.75"/>
    <circle class="st1" cx="90.99" cy="78.2" r="2.75"/>
    <path class="st1" d="M98.64,83.83c-1.52,0-2.75,1.23-2.75,2.75s1.23,2.75,2.75,2.75,2.75-1.23,2.75-2.75-1.23-2.75-2.75-2.75Z"/>
    <path class="st1" d="M98.64,75.45c-1.52,0-2.75,1.23-2.75,2.75s1.23,2.75,2.75,2.75,2.75-1.23,2.75-2.75-1.23-2.75-2.75-2.75Z"/>
    <circle class="st1" cx="106.29" cy="86.58" r="2.75"/>
    <circle class="st1" cx="106.29" cy="78.2" r="2.75"/>
    <circle class="st1" cx="113.95" cy="103.35" r="2.75"/>
    <path class="st1" d="M113.95,92.21c-1.52,0-2.75,1.23-2.75,2.75s1.23,2.75,2.75,2.75,2.75-1.23,2.75-2.75-1.23-2.75-2.75-2.75Z"/>
    <circle class="st1" cx="113.95" cy="86.58" r="2.75"/>
    <circle class="st1" cx="113.95" cy="78.2" r="2.75"/>
    <path class="st1" d="M121.6,100.6c-1.52,0-2.75,1.23-2.75,2.75s1.23,2.75,2.75,2.75,2.75-1.23,2.75-2.75-1.23-2.75-2.75-2.75Z"/>
    <path class="st1" d="M121.6,92.21c-1.52,0-2.75,1.23-2.75,2.75s1.23,2.75,2.75,2.75,2.75-1.23,2.75-2.75-1.23-2.75-2.75-2.75Z"/>
    <path class="st1" d="M121.6,83.83c-1.52,0-2.75,1.23-2.75,2.75s1.23,2.75,2.75,2.75,2.75-1.23,2.75-2.75-1.23-2.75-2.75-2.75Z"/>
    <path class="st1" d="M121.6,75.45c-1.52,0-2.75,1.23-2.75,2.75s1.23,2.75,2.75,2.75,2.75-1.23,2.75-2.75-1.23-2.75-2.75-2.75Z"/>
    <path class="st1" d="M121.6,125.75c-1.52,0-2.75,1.23-2.75,2.75s1.23,2.75,2.75,2.75,2.75-1.23,2.75-2.75-1.23-2.75-2.75-2.75Z"/>
    <path class="st1" d="M121.6,117.36c-1.52,0-2.75,1.23-2.75,2.75s1.23,2.75,2.75,2.75,2.75-1.23,2.75-2.75-1.23-2.75-2.75-2.75Z"/>
    <path class="st1" d="M121.6,108.98c-1.52,0-2.75,1.23-2.75,2.75s1.23,2.75,2.75,2.75,2.75-1.23,2.75-2.75-1.23-2.75-2.75-2.75Z"/>
    <circle class="st1" cx="129.25" cy="103.35" r="2.75"/>
    <circle class="st1" cx="129.25" cy="94.96" r="2.75"/>
    <circle class="st1" cx="129.25" cy="86.58" r="2.75"/>
    <circle class="st1" cx="129.25" cy="78.2" r="2.75"/>
    <path class="st1" d="M136.91,100.6c-1.52,0-2.75,1.23-2.75,2.75s1.23,2.75,2.75,2.75,2.75-1.23,2.75-2.75-1.23-2.75-2.75-2.75Z"/>
    <path class="st1" d="M136.91,92.21c-1.52,0-2.75,1.23-2.75,2.75s1.23,2.75,2.75,2.75,2.75-1.23,2.75-2.75-1.23-2.75-2.75-2.75Z"/>
    <path class="st1" d="M136.91,83.83c-1.52,0-2.75,1.23-2.75,2.75s1.23,2.75,2.75,2.75,2.75-1.23,2.75-2.75-1.23-2.75-2.75-2.75Z"/>
    <path class="st1" d="M136.91,75.45c-1.52,0-2.75,1.23-2.75,2.75s1.23,2.75,2.75,2.75,2.75-1.23,2.75-2.75-1.23-2.75-2.75-2.75Z"/>
    <path class="st1" d="M144.56,100.6c-1.52,0-2.75,1.23-2.75,2.75s1.23,2.75,2.75,2.75,2.75-1.23,2.75-2.75-1.23-2.75-2.75-2.75Z"/>
    <path class="st1" d="M144.56,92.21c-1.52,0-2.75,1.23-2.75,2.75s1.23,2.75,2.75,2.75,2.75-1.23,2.75-2.75-1.23-2.75-2.75-2.75Z"/>
    <path class="st1" d="M144.56,83.83c-1.52,0-2.75,1.23-2.75,2.75s1.23,2.75,2.75,2.75,2.75-1.23,2.75-2.75-1.23-2.75-2.75-2.75Z"/>
    <path class="st1" d="M144.56,75.45c-1.52,0-2.75,1.23-2.75,2.75s1.23,2.75,2.75,2.75,2.75-1.23,2.75-2.75-1.23-2.75-2.75-2.75Z"/>
    <circle class="st1" cx="152.22" cy="103.35" r="2.75"/>
    <circle class="st1" cx="152.22" cy="94.96" r="2.75"/>
    <circle class="st1" cx="152.22" cy="86.58" r="2.75"/>
    <circle class="st1" cx="152.22" cy="78.2" r="2.75"/>
    <circle class="st1" cx="159.87" cy="103.35" r="2.75"/>
    <circle class="st1" cx="159.87" cy="94.96" r="2.75"/>
    <circle class="st1" cx="159.87" cy="86.58" r="2.75"/>
    <circle class="st1" cx="159.87" cy="78.2" r="2.75"/>
    <circle class="st1" cx="167.52" cy="103.35" r="2.75"/>
    <circle class="st1" cx="167.52" cy="94.96" r="2.75"/>
    <circle class="st1" cx="167.52" cy="86.58" r="2.75"/>
    <circle class="st1" cx="167.52" cy="78.2" r="2.75"/>
    <circle class="st1" cx="175.18" cy="103.35" r="2.75"/>
    <circle class="st1" cx="175.18" cy="94.96" r="2.75"/>
    <circle class="st1" cx="129.25" cy="136.88" r="2.75"/>
    <circle class="st1" cx="129.25" cy="128.49" r="2.75"/>
    <circle class="st1" cx="129.25" cy="120.11" r="2.75"/>
    <circle class="st1" cx="129.25" cy="111.73" r="2.75"/>
    <path class="st1" d="M136.91,134.13c-1.52,0-2.75,1.23-2.75,2.75s1.23,2.75,2.75,2.75,2.75-1.23,2.75-2.75-1.23-2.75-2.75-2.75Z"/>
    <path class="st1" d="M136.91,125.75c-1.52,0-2.75,1.23-2.75,2.75s1.23,2.75,2.75,2.75,2.75-1.23,2.75-2.75-1.23-2.75-2.75-2.75Z"/>
    <path class="st1" d="M136.91,117.36c-1.52,0-2.75,1.23-2.75,2.75s1.23,2.75,2.75,2.75,2.75-1.23,2.75-2.75-1.23-2.75-2.75-2.75Z"/>
    <path class="st1" d="M136.91,108.98c-1.52,0-2.75,1.23-2.75,2.75s1.23,2.75,2.75,2.75,2.75-1.23,2.75-2.75-1.23-2.75-2.75-2.75Z"/>
    <path class="st1" d="M144.56,134.13c-1.52,0-2.75,1.23-2.75,2.75s1.23,2.75,2.75,2.75,2.75-1.23,2.75-2.75-1.23-2.75-2.75-2.75Z"/>
    <path class="st1" d="M144.56,125.75c-1.52,0-2.75,1.23-2.75,2.75s1.23,2.75,2.75,2.75,2.75-1.23,2.75-2.75-1.23-2.75-2.75-2.75Z"/>
    <path class="st1" d="M144.56,117.36c-1.52,0-2.75,1.23-2.75,2.75s1.23,2.75,2.75,2.75,2.75-1.23,2.75-2.75-1.23-2.75-2.75-2.75Z"/>
    <path class="st1" d="M144.56,108.98c-1.52,0-2.75,1.23-2.75,2.75s1.23,2.75,2.75,2.75,2.75-1.23,2.75-2.75-1.23-2.75-2.75-2.75Z"/>
    <circle class="st1" cx="152.22" cy="136.88" r="2.75"/>
    <circle class="st1" cx="152.22" cy="128.49" r="2.75"/>
    <circle class="st1" cx="152.22" cy="120.11" r="2.75"/>
    <circle class="st1" cx="152.22" cy="111.73" r="2.75"/>
    <circle class="st1" cx="159.87" cy="136.88" r="2.75"/>
    <circle class="st1" cx="159.87" cy="128.49" r="2.75"/>
    <circle class="st1" cx="159.87" cy="120.11" r="2.75"/>
    <circle class="st1" cx="159.87" cy="111.73" r="2.75"/>
    <circle class="st1" cx="167.52" cy="136.88" r="2.75"/>
    <circle class="st1" cx="167.52" cy="128.49" r="2.75"/>
    <circle class="st1" cx="167.52" cy="120.11" r="2.75"/>
    <circle class="st1" cx="167.52" cy="111.73" r="2.75"/>
    <circle class="st1" cx="175.18" cy="136.88" r="2.75"/>
    <circle class="st1" cx="175.18" cy="128.49" r="2.75"/>
    <circle class="st1" cx="175.18" cy="120.11" r="2.75"/>
    <circle class="st1" cx="175.18" cy="111.73" r="2.75"/>
    <circle class="st1" cx="190.49" cy="11.13" r="2.75"/>
    <path class="st1" d="M198.14,16.77c-1.52,0-2.75,1.23-2.75,2.75s1.23,2.75,2.75,2.75,2.75-1.23,2.75-2.75-1.23-2.75-2.75-2.75Z"/>
    <path class="st1" d="M198.14,8.38c-1.52,0-2.75,1.23-2.75,2.75s1.23,2.75,2.75,2.75,2.75-1.23,2.75-2.75-1.23-2.75-2.75-2.75Z"/>
    <path class="st1" d="M198.14,0c-1.52,0-2.75,1.23-2.75,2.75s1.23,2.75,2.75,2.75,2.75-1.23,2.75-2.75-1.23-2.75-2.75-2.75Z"/>
    <circle class="st1" cx="205.79" cy="19.51" r="2.75"/>
    <circle class="st1" cx="205.79" cy="11.13" r="2.75"/>
    <circle class="st1" cx="205.79" cy="2.75" r="2.75"/>
    <circle class="st1" cx="213.45" cy="36.28" r="2.75"/>
    <circle class="st1" cx="213.45" cy="27.9" r="2.75"/>
    <circle class="st1" cx="213.45" cy="19.51" r="2.75"/>
    <circle class="st1" cx="213.45" cy="11.13" r="2.75"/>
    <circle class="st1" cx="213.45" cy="2.75" r="2.75"/>
    <circle class="st1" cx="221.1" cy="36.28" r="2.75"/>
    <circle class="st1" cx="221.1" cy="27.9" r="2.75"/>
    <circle class="st1" cx="221.1" cy="19.51" r="2.75"/>
    <circle class="st1" cx="221.1" cy="11.13" r="2.75"/>
    <circle class="st1" cx="221.1" cy="2.75" r="2.75"/>
    <circle class="st1" cx="228.75" cy="36.28" r="2.75"/>
    <circle class="st1" cx="228.75" cy="27.9" r="2.75"/>
    <circle class="st1" cx="228.75" cy="19.51" r="2.75"/>
    <circle class="st1" cx="228.75" cy="11.13" r="2.75"/>
    <circle class="st1" cx="228.75" cy="2.75" r="2.75"/>
    <path class="st1" d="M236.41,33.53c-1.52,0-2.75,1.23-2.75,2.75s1.23,2.75,2.75,2.75,2.75-1.23,2.75-2.75-1.23-2.75-2.75-2.75Z"/>
    <path class="st1" d="M236.41,25.15c-1.52,0-2.75,1.23-2.75,2.75s1.23,2.75,2.75,2.75,2.75-1.23,2.75-2.75-1.23-2.75-2.75-2.75Z"/>
    <path class="st1" d="M236.41,16.77c-1.52,0-2.75,1.23-2.75,2.75s1.23,2.75,2.75,2.75,2.75-1.23,2.75-2.75-1.23-2.75-2.75-2.75Z"/>
    <path class="st1" d="M236.41,8.38c-1.52,0-2.75,1.23-2.75,2.75s1.23,2.75,2.75,2.75,2.75-1.23,2.75-2.75-1.23-2.75-2.75-2.75Z"/>
    <path class="st1" d="M236.41,0c-1.52,0-2.75,1.23-2.75,2.75s1.23,2.75,2.75,2.75,2.75-1.23,2.75-2.75-1.23-2.75-2.75-2.75Z"/>
    <circle class="st1" cx="244.06" cy="36.28" r="2.75"/>
    <circle class="st1" cx="244.06" cy="27.9" r="2.75"/>
    <circle class="st1" cx="244.06" cy="19.51" r="2.75"/>
    <circle class="st1" cx="244.06" cy="11.13" r="2.75"/>
    <circle class="st1" cx="244.06" cy="2.75" r="2.75"/>
    <circle class="st1" cx="182.83" cy="61.43" r="2.75"/>
    <path class="st1" d="M182.83,50.3c-1.52,0-2.75,1.23-2.75,2.75s1.23,2.75,2.75,2.75,2.75-1.23,2.75-2.75-1.23-2.75-2.75-2.75Z"/>
    <circle class="st1" cx="213.45" cy="44.66" r="2.75"/>
    <circle class="st1" cx="221.1" cy="69.81" r="2.75"/>
    <circle class="st1" cx="221.1" cy="61.43" r="2.75"/>
    <path class="st1" d="M221.1,50.3c-1.52,0-2.75,1.23-2.75,2.75s1.23,2.75,2.75,2.75,2.75-1.23,2.75-2.75-1.23-2.75-2.75-2.75Z"/>
    <circle class="st1" cx="221.1" cy="44.66" r="2.75"/>
    <circle class="st1" cx="228.75" cy="69.81" r="2.75"/>
    <circle class="st1" cx="228.75" cy="61.43" r="2.75"/>
    <path class="st1" d="M228.75,50.3c-1.52,0-2.75,1.23-2.75,2.75s1.23,2.75,2.75,2.75,2.75-1.23,2.75-2.75-1.23-2.75-2.75-2.75Z"/>
    <circle class="st1" cx="228.75" cy="44.66" r="2.75"/>
    <path class="st1" d="M236.41,67.06c-1.52,0-2.75,1.23-2.75,2.75s1.23,2.75,2.75,2.75,2.75-1.23,2.75-2.75-1.23-2.75-2.75-2.75Z"/>
    <path class="st1" d="M236.41,58.68c-1.52,0-2.75,1.23-2.75,2.75s1.23,2.75,2.75,2.75,2.75-1.23,2.75-2.75-1.23-2.75-2.75-2.75Z"/>
    <path class="st1" d="M236.41,50.3c-1.52,0-2.75,1.23-2.75,2.75s1.23,2.75,2.75,2.75,2.75-1.23,2.75-2.75-1.23-2.75-2.75-2.75Z"/>
    <path class="st1" d="M236.41,41.92c-1.52,0-2.75,1.23-2.75,2.75s1.23,2.75,2.75,2.75,2.75-1.23,2.75-2.75-1.23-2.75-2.75-2.75Z"/>
    <circle class="st1" cx="244.06" cy="61.43" r="2.75"/>
    <path class="st1" d="M244.06,50.3c-1.52,0-2.75,1.23-2.75,2.75s1.23,2.75,2.75,2.75,2.75-1.23,2.75-2.75-1.23-2.75-2.75-2.75Z"/>
    <circle class="st1" cx="244.06" cy="44.66" r="2.75"/>
    <circle class="st1" cx="251.72" cy="36.28" r="2.75"/>
    <circle class="st1" cx="251.72" cy="27.9" r="2.75"/>
    <circle class="st1" cx="251.72" cy="19.51" r="2.75"/>
    <circle class="st1" cx="251.72" cy="11.13" r="2.75"/>
    <circle class="st1" cx="251.72" cy="2.75" r="2.75"/>
    <circle class="st1" cx="259.37" cy="36.28" r="2.75"/>
    <circle class="st1" cx="259.37" cy="27.9" r="2.75"/>
    <circle class="st1" cx="259.37" cy="19.51" r="2.75"/>
    <circle class="st1" cx="259.37" cy="11.13" r="2.75"/>
    <circle class="st1" cx="259.37" cy="2.75" r="2.75"/>
    <circle class="st1" cx="251.72" cy="61.43" r="2.75"/>
    <path class="st1" d="M251.72,50.3c-1.52,0-2.75,1.23-2.75,2.75s1.23,2.75,2.75,2.75,2.75-1.23,2.75-2.75-1.23-2.75-2.75-2.75Z"/>
    <circle class="st1" cx="251.72" cy="44.66" r="2.75"/>
    <circle class="st1" cx="259.37" cy="69.81" r="2.75"/>
    <path class="st1" d="M259.37,50.3c-1.52,0-2.75,1.23-2.75,2.75s1.23,2.75,2.75,2.75,2.75-1.23,2.75-2.75-1.23-2.75-2.75-2.75Z"/>
    <circle class="st1" cx="259.37" cy="44.66" r="2.75"/>
    <circle class="st1" cx="267.02" cy="69.81" r="2.75"/>
    <path class="st1" d="M184.37,101.07c-.22-.15-.46-.27-.72-.35s-.53-.12-.82-.12h0c-.28,0-.56.04-.82.12-.26.08-.5.2-.72.35-.15.1-.28.21-.41.34-.5.5-.8,1.18-.8,1.94s.31,1.45.8,1.94c.12.12.26.24.41.34.22.15.46.27.72.35.26.08.53.12.82.12h0c.28,0,.56-.04.82-.12.26-.08.5-.2.72-.35.15-.1.28-.21.41-.34.5-.5.8-1.18.8-1.94s-.31-1.45-.8-1.94c-.12-.12-.26-.24-.41-.34Z"/>
    <path class="st1" d="M184.37,92.68c-.22-.15-.46-.27-.72-.35s-.53-.12-.82-.12h0c-.28,0-.56.04-.82.12-.26.08-.5.2-.72.35-.15.1-.28.21-.41.34-.5.5-.8,1.18-.8,1.94s.31,1.45.8,1.94c.12.12.26.24.41.34.22.15.46.27.72.35.26.08.53.12.82.12h0c.28,0,.56-.04.82-.12s.5-.2.72-.35c.15-.1.28-.21.41-.34.5-.5.8-1.18.8-1.94s-.31-1.45-.8-1.94c-.12-.12-.26-.24-.41-.34Z"/>
    <path class="st1" d="M184.37,84.3c-.22-.15-.46-.27-.72-.35-.26-.08-.53-.12-.82-.12h0c-.28,0-.56.04-.82.12-.26.08-.5.2-.72.35-.15.1-.28.21-.41.34-.5.5-.8,1.18-.8,1.94,0,.19.02.37.06.55.05.27.15.52.28.76.08.16.18.3.3.44.5.61,1.27,1,2.12,1s1.62-.39,2.12-1c.11-.14.21-.28.3-.44.13-.23.22-.49.28-.76.04-.18.06-.36.06-.55,0-.76-.31-1.45-.8-1.94-.12-.12-.26-.24-.41-.34Z"/>
    <circle class="st1" cx="190.49" cy="103.35" r="2.75"/>
    <circle class="st1" cx="190.49" cy="94.96" r="2.75"/>
    <circle class="st1" cx="190.49" cy="86.58" r="2.75"/>
    <circle class="st1" cx="190.49" cy="78.2" r="2.75"/>
    <path class="st1" d="M198.14,100.6c-1.52,0-2.75,1.23-2.75,2.75s1.23,2.75,2.75,2.75,2.75-1.23,2.75-2.75-1.23-2.75-2.75-2.75Z"/>
    <path class="st1" d="M198.14,92.21c-1.52,0-2.75,1.23-2.75,2.75s1.23,2.75,2.75,2.75,2.75-1.23,2.75-2.75-1.23-2.75-2.75-2.75Z"/>
    <path class="st1" d="M198.14,83.83c-1.52,0-2.75,1.23-2.75,2.75s1.23,2.75,2.75,2.75,2.75-1.23,2.75-2.75-1.23-2.75-2.75-2.75Z"/>
    <circle class="st1" cx="205.79" cy="103.35" r="2.75"/>
    <circle class="st1" cx="205.79" cy="94.96" r="2.75"/>
    <circle class="st1" cx="205.79" cy="86.58" r="2.75"/>
    <circle class="st1" cx="213.45" cy="103.35" r="2.75"/>
    <circle class="st1" cx="221.1" cy="78.2" r="2.75"/>
    <circle class="st1" cx="228.75" cy="86.58" r="2.75"/>
    <circle class="st1" cx="228.75" cy="78.2" r="2.75"/>
    <path class="st1" d="M185.46,136.06c-.08-.26-.2-.5-.35-.72-.2-.29-.45-.54-.74-.74-.22-.15-.46-.27-.72-.35s-.53-.12-.82-.12h0c-.28,0-.56.04-.82.12-.26.08-.5.2-.72.35-.15.1-.28.21-.41.34-.12.12-.24.26-.34.41-.15.22-.27.46-.35.72-.08.26-.12.53-.12.82h0c0,.28.04.56.12.82.08.26.2.5.35.72.2.29.45.54.74.74.22.15.46.27.72.35.26.08.53.12.82.12h0c.28,0,.56-.04.82-.12s.5-.2.72-.35c.15-.1.28-.21.41-.34.12-.12.24-.26.34-.41.15-.22.27-.46.35-.72.08-.26.12-.53.12-.82h0c0-.28-.04-.56-.12-.82Z"/>
    <path class="st1" d="M184.37,126.22c-.22-.15-.46-.27-.72-.35s-.53-.12-.82-.12h0c-.28,0-.56.04-.82.12-.26.08-.5.2-.72.35-.15.1-.28.21-.41.34-.5.5-.8,1.18-.8,1.94s.31,1.45.8,1.94c.12.12.26.24.41.34.22.15.46.27.72.35.26.08.53.12.82.12h0c.28,0,.56-.04.82-.12s.5-.2.72-.35c.15-.1.28-.21.41-.34.5-.5.8-1.18.8-1.94s-.31-1.45-.8-1.94c-.12-.12-.26-.24-.41-.34Z"/>
    <path class="st1" d="M184.37,117.83c-.22-.15-.46-.27-.72-.35-.26-.08-.53-.12-.82-.12h0c-.28,0-.56.04-.82.12-.26.08-.5.2-.72.35-.15.1-.28.21-.41.34-.5.5-.8,1.18-.8,1.94,0,.38.08.74.22,1.07.1.25.24.47.41.68.06.07.12.13.18.2.12.12.26.24.41.34.07.05.15.1.23.14.39.21.84.33,1.31.33h0c.28,0,.56-.04.82-.12.17-.05.34-.12.49-.21.08-.04.15-.09.23-.14.15-.1.28-.21.41-.34.06-.06.12-.13.18-.2.17-.2.31-.43.41-.68.14-.33.22-.69.22-1.07,0-.76-.31-1.45-.8-1.94-.12-.12-.26-.24-.41-.34Z"/>
    <circle class="st1" cx="190.49" cy="136.88" r="2.75"/>
    <circle class="st1" cx="190.49" cy="128.49" r="2.75"/>
    <circle class="st1" cx="190.49" cy="120.11" r="2.75"/>
    <circle class="st1" cx="182.83" cy="111.73" r="2.75"/>
    <circle class="st1" cx="190.49" cy="111.73" r="2.75"/>
    <path class="st1" d="M198.14,117.36c-1.52,0-2.75,1.23-2.75,2.75s1.23,2.75,2.75,2.75,2.75-1.23,2.75-2.75-1.23-2.75-2.75-2.75Z"/>
    <path class="st1" d="M198.14,108.98c-1.52,0-2.75,1.23-2.75,2.75s1.23,2.75,2.75,2.75,2.75-1.23,2.75-2.75-1.23-2.75-2.75-2.75Z"/>
    <circle class="st1" cx="205.79" cy="120.11" r="2.75"/>
    <circle class="st1" cx="205.79" cy="111.73" r="2.75"/>
    <circle class="st1" cx="213.45" cy="111.73" r="2.75"/>
    <path class="st1" d="M274.68,100.6c-1.52,0-2.75,1.23-2.75,2.75s1.23,2.75,2.75,2.75,2.75-1.23,2.75-2.75-1.23-2.75-2.75-2.75Z"/>
    <circle class="st1" cx="282.33" cy="103.35" r="2.75"/>
    <circle class="st1" cx="282.33" cy="94.96" r="2.75"/>
    <circle class="st1" cx="282.33" cy="86.58" r="2.75"/>
    <circle class="st1" cx="289.98" cy="103.35" r="2.75"/>
    <path class="st1" d="M297.64,100.6c-1.52,0-2.75,1.23-2.75,2.75s1.23,2.75,2.75,2.75,2.75-1.23,2.75-2.75-1.23-2.75-2.75-2.75Z"/>
    <path class="st1" d="M297.64,83.83c-1.52,0-2.75,1.23-2.75,2.75s1.23,2.75,2.75,2.75,2.75-1.23,2.75-2.75-1.23-2.75-2.75-2.75Z"/>
    <path class="st1" d="M297.64,75.45c-1.52,0-2.75,1.23-2.75,2.75s1.23,2.75,2.75,2.75,2.75-1.23,2.75-2.75-1.23-2.75-2.75-2.75Z"/>
    <path class="st1" d="M274.68,134.13c-1.52,0-2.75,1.23-2.75,2.75s1.23,2.75,2.75,2.75,2.75-1.23,2.75-2.75-1.23-2.75-2.75-2.75Z"/>
    <circle class="st1" cx="282.33" cy="136.88" r="2.75"/>
    <circle class="st1" cx="282.33" cy="128.49" r="2.75"/>
    <circle class="st1" cx="282.33" cy="120.11" r="2.75"/>
    <circle class="st1" cx="282.33" cy="111.73" r="2.75"/>
    <circle class="st1" cx="289.98" cy="136.88" r="2.75"/>
    <circle class="st1" cx="289.98" cy="128.49" r="2.75"/>
    <circle class="st1" cx="289.98" cy="120.11" r="2.75"/>
    <circle class="st1" cx="289.98" cy="111.73" r="2.75"/>
    <path class="st1" d="M297.64,134.13c-1.52,0-2.75,1.23-2.75,2.75s1.23,2.75,2.75,2.75,2.75-1.23,2.75-2.75-1.23-2.75-2.75-2.75Z"/>
    <path class="st1" d="M297.64,117.36c-1.52,0-2.75,1.23-2.75,2.75s1.23,2.75,2.75,2.75,2.75-1.23,2.75-2.75-1.23-2.75-2.75-2.75Z"/>
    <path class="st1" d="M297.64,108.98c-1.52,0-2.75,1.23-2.75,2.75s1.23,2.75,2.75,2.75,2.75-1.23,2.75-2.75-1.23-2.75-2.75-2.75Z"/>
    <path class="st1" d="M136.91,150.9c-1.52,0-2.75,1.23-2.75,2.75s1.23,2.75,2.75,2.75,2.75-1.23,2.75-2.75-1.23-2.75-2.75-2.75Z"/>
    <path class="st1" d="M136.91,142.51c-1.52,0-2.75,1.23-2.75,2.75s1.23,2.75,2.75,2.75,2.75-1.23,2.75-2.75-1.23-2.75-2.75-2.75Z"/>
    <path class="st1" d="M144.56,150.9c-1.52,0-2.75,1.23-2.75,2.75s1.23,2.75,2.75,2.75,2.75-1.23,2.75-2.75-1.23-2.75-2.75-2.75Z"/>
    <path class="st1" d="M144.56,142.51c-1.52,0-2.75,1.23-2.75,2.75s1.23,2.75,2.75,2.75,2.75-1.23,2.75-2.75-1.23-2.75-2.75-2.75Z"/>
    <circle class="st1" cx="152.22" cy="162.03" r="2.75"/>
    <path class="st1" d="M152.22,150.9c-1.52,0-2.75,1.23-2.75,2.75s1.23,2.75,2.75,2.75,2.75-1.23,2.75-2.75-1.23-2.75-2.75-2.75Z"/>
    <circle class="st1" cx="152.22" cy="145.26" r="2.75"/>
    <circle class="st1" cx="159.87" cy="162.03" r="2.75"/>
    <path class="st1" d="M159.87,150.9c-1.52,0-2.75,1.23-2.75,2.75s1.23,2.75,2.75,2.75,2.75-1.23,2.75-2.75-1.23-2.75-2.75-2.75Z"/>
    <circle class="st1" cx="159.87" cy="145.26" r="2.75"/>
    <circle class="st1" cx="167.52" cy="162.03" r="2.75"/>
    <circle class="st1" cx="175.18" cy="162.03" r="2.75"/>
    <path class="st1" d="M152.22,167.66c-1.52,0-2.75,1.23-2.75,2.75s1.23,2.75,2.75,2.75,2.75-1.23,2.75-2.75-1.23-2.75-2.75-2.75Z"/>
    <path class="st1" d="M159.87,167.66c-1.52,0-2.75,1.23-2.75,2.75s1.23,2.75,2.75,2.75,2.75-1.23,2.75-2.75-1.23-2.75-2.75-2.75Z"/>
    <path class="st1" d="M167.52,167.66c-1.52,0-2.75,1.23-2.75,2.75s1.23,2.75,2.75,2.75,2.75-1.23,2.75-2.75-1.23-2.75-2.75-2.75Z"/>
    <circle class="st1" cx="175.18" cy="187.18" r="2.75"/>
    <path class="st1" d="M175.18,167.66c-1.52,0-2.75,1.23-2.75,2.75s1.23,2.75,2.75,2.75,2.75-1.23,2.75-2.75-1.23-2.75-2.75-2.75Z"/>
    <path class="st1" d="M190.49,226.34c-1.52,0-2.75,1.23-2.75,2.75s1.23,2.75,2.75,2.75,2.75-1.23,2.75-2.75-1.23-2.75-2.75-2.75Z"/>
    <circle class="st1" cx="190.49" cy="220.71" r="2.75"/>
    <path class="st1" d="M190.49,209.58c-1.52,0-2.75,1.23-2.75,2.75s1.23,2.75,2.75,2.75,2.75-1.23,2.75-2.75-1.23-2.75-2.75-2.75Z"/>
    <circle class="st1" cx="182.83" cy="203.94" r="2.75"/>
    <path class="st1" d="M182.83,192.81c-1.52,0-2.75,1.23-2.75,2.75s1.23,2.75,2.75,2.75,2.75-1.23,2.75-2.75-1.23-2.75-2.75-2.75Z"/>
    <circle class="st1" cx="190.49" cy="203.94" r="2.75"/>
    <path class="st1" d="M190.49,192.81c-1.52,0-2.75,1.23-2.75,2.75s1.23,2.75,2.75,2.75,2.75-1.23,2.75-2.75-1.23-2.75-2.75-2.75Z"/>
    <path class="st1" d="M198.14,226.34c-1.52,0-2.75,1.23-2.75,2.75s1.23,2.75,2.75,2.75,2.75-1.23,2.75-2.75-1.23-2.75-2.75-2.75Z"/>
    <path class="st1" d="M198.14,217.96c-1.52,0-2.75,1.23-2.75,2.75s1.23,2.75,2.75,2.75,2.75-1.23,2.75-2.75-1.23-2.75-2.75-2.75Z"/>
    <path class="st1" d="M198.14,209.58c-1.52,0-2.75,1.23-2.75,2.75s1.23,2.75,2.75,2.75,2.75-1.23,2.75-2.75-1.23-2.75-2.75-2.75Z"/>
    <path class="st1" d="M198.14,201.19c-1.52,0-2.75,1.23-2.75,2.75s1.23,2.75,2.75,2.75,2.75-1.23,2.75-2.75-1.23-2.75-2.75-2.75Z"/>
    <path class="st1" d="M198.14,192.81c-1.52,0-2.75,1.23-2.75,2.75s1.23,2.75,2.75,2.75,2.75-1.23,2.75-2.75-1.23-2.75-2.75-2.75Z"/>
    <path class="st1" d="M205.79,226.34c-1.52,0-2.75,1.23-2.75,2.75s1.23,2.75,2.75,2.75,2.75-1.23,2.75-2.75-1.23-2.75-2.75-2.75Z"/>
    <circle class="st1" cx="205.79" cy="220.71" r="2.75"/>
    <path class="st1" d="M205.79,209.58c-1.52,0-2.75,1.23-2.75,2.75s1.23,2.75,2.75,2.75,2.75-1.23,2.75-2.75-1.23-2.75-2.75-2.75Z"/>
    <circle class="st1" cx="205.79" cy="203.94" r="2.75"/>
    <path class="st1" d="M205.79,192.81c-1.52,0-2.75,1.23-2.75,2.75s1.23,2.75,2.75,2.75,2.75-1.23,2.75-2.75-1.23-2.75-2.75-2.75Z"/>
    <path class="st1" d="M213.45,226.34c-1.52,0-2.75,1.23-2.75,2.75s1.23,2.75,2.75,2.75,2.75-1.23,2.75-2.75-1.23-2.75-2.75-2.75Z"/>
    <circle class="st1" cx="213.45" cy="220.71" r="2.75"/>
    <path class="st1" d="M213.45,209.58c-1.52,0-2.75,1.23-2.75,2.75s1.23,2.75,2.75,2.75,2.75-1.23,2.75-2.75-1.23-2.75-2.75-2.75Z"/>
    <circle class="st1" cx="213.45" cy="203.94" r="2.75"/>
    <path class="st1" d="M213.45,192.81c-1.52,0-2.75,1.23-2.75,2.75s1.23,2.75,2.75,2.75,2.75-1.23,2.75-2.75-1.23-2.75-2.75-2.75Z"/>
    <path class="st1" d="M221.1,226.34c-1.52,0-2.75,1.23-2.75,2.75s1.23,2.75,2.75,2.75,2.75-1.23,2.75-2.75-1.23-2.75-2.75-2.75Z"/>
    <circle class="st1" cx="221.1" cy="220.71" r="2.75"/>
    <path class="st1" d="M221.1,209.58c-1.52,0-2.75,1.23-2.75,2.75s1.23,2.75,2.75,2.75,2.75-1.23,2.75-2.75-1.23-2.75-2.75-2.75Z"/>
    <circle class="st1" cx="221.1" cy="203.94" r="2.75"/>
    <path class="st1" d="M221.1,192.81c-1.52,0-2.75,1.23-2.75,2.75s1.23,2.75,2.75,2.75,2.75-1.23,2.75-2.75-1.23-2.75-2.75-2.75Z"/>
    <path class="st1" d="M228.75,226.34c-1.52,0-2.75,1.23-2.75,2.75s1.23,2.75,2.75,2.75,2.75-1.23,2.75-2.75-1.23-2.75-2.75-2.75Z"/>
    <circle class="st1" cx="228.75" cy="220.71" r="2.75"/>
    <path class="st1" d="M228.75,209.58c-1.52,0-2.75,1.23-2.75,2.75s1.23,2.75,2.75,2.75,2.75-1.23,2.75-2.75-1.23-2.75-2.75-2.75Z"/>
    <circle class="st1" cx="228.75" cy="203.94" r="2.75"/>
    <path class="st1" d="M228.75,192.81c-1.52,0-2.75,1.23-2.75,2.75s1.23,2.75,2.75,2.75,2.75-1.23,2.75-2.75-1.23-2.75-2.75-2.75Z"/>
    <path class="st1" d="M236.41,217.96c-1.52,0-2.75,1.23-2.75,2.75s1.23,2.75,2.75,2.75,2.75-1.23,2.75-2.75-1.23-2.75-2.75-2.75Z"/>
    <path class="st1" d="M236.41,209.58c-1.52,0-2.75,1.23-2.75,2.75s1.23,2.75,2.75,2.75,2.75-1.23,2.75-2.75-1.23-2.75-2.75-2.75Z"/>
    <path class="st1" d="M236.41,201.19c-1.52,0-2.75,1.23-2.75,2.75s1.23,2.75,2.75,2.75,2.75-1.23,2.75-2.75-1.23-2.75-2.75-2.75Z"/>
    <path class="st1" d="M236.41,192.81c-1.52,0-2.75,1.23-2.75,2.75s1.23,2.75,2.75,2.75,2.75-1.23,2.75-2.75-1.23-2.75-2.75-2.75Z"/>
    <circle class="st1" cx="244.06" cy="203.94" r="2.75"/>
    <path class="st1" d="M244.06,192.81c-1.52,0-2.75,1.23-2.75,2.75s1.23,2.75,2.75,2.75,2.75-1.23,2.75-2.75-1.23-2.75-2.75-2.75Z"/>
    <circle class="st1" cx="190.49" cy="262.62" r="2.75"/>
    <circle class="st1" cx="190.49" cy="254.24" r="2.75"/>
    <circle class="st1" cx="190.49" cy="245.86" r="2.75"/>
    <circle class="st1" cx="190.49" cy="237.47" r="2.75"/>
    <path class="st1" d="M198.14,259.88c-1.52,0-2.75,1.23-2.75,2.75s1.23,2.75,2.75,2.75,2.75-1.23,2.75-2.75-1.23-2.75-2.75-2.75Z"/>
    <path class="st1" d="M198.14,251.49c-1.52,0-2.75,1.23-2.75,2.75s1.23,2.75,2.75,2.75,2.75-1.23,2.75-2.75-1.23-2.75-2.75-2.75Z"/>
    <path class="st1" d="M198.14,243.11c-1.52,0-2.75,1.23-2.75,2.75s1.23,2.75,2.75,2.75,2.75-1.23,2.75-2.75-1.23-2.75-2.75-2.75Z"/>
    <path class="st1" d="M198.14,234.73c-1.52,0-2.75,1.23-2.75,2.75s1.23,2.75,2.75,2.75,2.75-1.23,2.75-2.75-1.23-2.75-2.75-2.75Z"/>
    <circle class="st1" cx="205.79" cy="254.24" r="2.75"/>
    <circle class="st1" cx="205.79" cy="245.86" r="2.75"/>
    <circle class="st1" cx="205.79" cy="237.47" r="2.75"/>
    <circle class="st1" cx="213.45" cy="245.86" r="2.75"/>
    <circle class="st1" cx="213.45" cy="237.47" r="2.75"/>
    <circle class="st1" cx="221.1" cy="237.47" r="2.75"/>
    <path class="st1" d="M185.46,144.44c-.08-.26-.2-.5-.35-.72-.1-.15-.21-.28-.34-.41-.5-.5-1.18-.8-1.94-.8s-1.45.31-1.94.8c-.12.12-.24.26-.34.41-.15.22-.27.46-.35.72-.08.26-.12.53-.12.82h0c0,.28.04.56.12.82.08.26.2.5.35.72.1.15.21.28.34.41.5.5,1.18.8,1.94.8s1.45-.31,1.94-.8c.12-.12.24-.26.34-.41.15-.22.27-.46.35-.72.08-.26.12-.53.12-.82h0c0-.28-.04-.56-.12-.82Z"/>
    <circle class="st1" cx="182.83" cy="187.18" r="2.75"/>
    <circle class="st1" cx="190.49" cy="187.18" r="2.75"/>
    <circle class="st1" cx="190.49" cy="178.79" r="2.75"/>
    <path class="st1" d="M185.25,169.1c-.17-.31-.4-.59-.67-.81-.27-.22-.59-.4-.93-.5-.26-.08-.53-.12-.82-.12-1.52,0-2.75,1.23-2.75,2.75s1.23,2.75,2.75,2.75c.28,0,.56-.04.82-.12.34-.11.66-.28.93-.5.27-.22.5-.5.67-.81.08-.16.15-.32.21-.49.08-.26.12-.53.12-.82s-.04-.56-.12-.82c-.05-.17-.12-.34-.21-.49Z"/>
    <path class="st1" d="M190.49,167.66c-1.52,0-2.75,1.23-2.75,2.75s1.23,2.75,2.75,2.75,2.75-1.23,2.75-2.75-1.23-2.75-2.75-2.75Z"/>
    <path class="st1" d="M198.14,184.43c-1.52,0-2.75,1.23-2.75,2.75s1.23,2.75,2.75,2.75,2.75-1.23,2.75-2.75-1.23-2.75-2.75-2.75Z"/>
    <path class="st1" d="M198.14,176.04c-1.52,0-2.75,1.23-2.75,2.75s1.23,2.75,2.75,2.75,2.75-1.23,2.75-2.75-1.23-2.75-2.75-2.75Z"/>
    <path class="st1" d="M198.14,167.66c-1.52,0-2.75,1.23-2.75,2.75s1.23,2.75,2.75,2.75,2.75-1.23,2.75-2.75-1.23-2.75-2.75-2.75Z"/>
    <circle class="st1" cx="205.79" cy="187.18" r="2.75"/>
    <circle class="st1" cx="205.79" cy="178.79" r="2.75"/>
    <path class="st1" d="M205.79,167.66c-1.52,0-2.75,1.23-2.75,2.75s1.23,2.75,2.75,2.75,2.75-1.23,2.75-2.75-1.23-2.75-2.75-2.75Z"/>
    <circle class="st1" cx="213.45" cy="187.18" r="2.75"/>
    <circle class="st1" cx="213.45" cy="178.79" r="2.75"/>
    <path class="st1" d="M213.45,167.66c-1.52,0-2.75,1.23-2.75,2.75s1.23,2.75,2.75,2.75,2.75-1.23,2.75-2.75-1.23-2.75-2.75-2.75Z"/>
    <circle class="st1" cx="221.1" cy="187.18" r="2.75"/>
    <circle class="st1" cx="221.1" cy="178.79" r="2.75"/>
    <circle class="st1" cx="228.75" cy="187.18" r="2.75"/>
    <path class="st1" d="M236.41,184.43c-1.52,0-2.75,1.23-2.75,2.75s1.23,2.75,2.75,2.75,2.75-1.23,2.75-2.75-1.23-2.75-2.75-2.75Z"/>
    <circle class="st1" cx="244.06" cy="187.18" r="2.75"/>
    <path class="st1" d="M267.02,150.9c-1.52,0-2.75,1.23-2.75,2.75s1.23,2.75,2.75,2.75,2.75-1.23,2.75-2.75-1.23-2.75-2.75-2.75Z"/>
    <path class="st1" d="M274.68,159.28c-1.52,0-2.75,1.23-2.75,2.75s1.23,2.75,2.75,2.75,2.75-1.23,2.75-2.75-1.23-2.75-2.75-2.75Z"/>
    <path class="st1" d="M274.68,150.9c-1.52,0-2.75,1.23-2.75,2.75s1.23,2.75,2.75,2.75,2.75-1.23,2.75-2.75-1.23-2.75-2.75-2.75Z"/>
    <path class="st1" d="M274.68,142.51c-1.52,0-2.75,1.23-2.75,2.75s1.23,2.75,2.75,2.75,2.75-1.23,2.75-2.75-1.23-2.75-2.75-2.75Z"/>
    <circle class="st1" cx="282.33" cy="162.03" r="2.75"/>
    <path class="st1" d="M282.33,150.9c-1.52,0-2.75,1.23-2.75,2.75s1.23,2.75,2.75,2.75,2.75-1.23,2.75-2.75-1.23-2.75-2.75-2.75Z"/>
    <circle class="st1" cx="282.33" cy="145.26" r="2.75"/>
    <circle class="st1" cx="289.98" cy="162.03" r="2.75"/>
    <path class="st1" d="M289.98,150.9c-1.52,0-2.75,1.23-2.75,2.75s1.23,2.75,2.75,2.75,2.75-1.23,2.75-2.75-1.23-2.75-2.75-2.75Z"/>
    <circle class="st1" cx="289.98" cy="145.26" r="2.75"/>
    <path class="st1" d="M297.64,159.28c-1.52,0-2.75,1.23-2.75,2.75s1.23,2.75,2.75,2.75,2.75-1.23,2.75-2.75-1.23-2.75-2.75-2.75Z"/>
    <path class="st1" d="M297.64,150.9c-1.52,0-2.75,1.23-2.75,2.75s1.23,2.75,2.75,2.75,2.75-1.23,2.75-2.75-1.23-2.75-2.75-2.75Z"/>
    <path class="st1" d="M297.64,142.51c-1.52,0-2.75,1.23-2.75,2.75s1.23,2.75,2.75,2.75,2.75-1.23,2.75-2.75-1.23-2.75-2.75-2.75Z"/>
    <path class="st1" d="M267.02,167.66c-1.52,0-2.75,1.23-2.75,2.75s1.23,2.75,2.75,2.75,2.75-1.23,2.75-2.75-1.23-2.75-2.75-2.75Z"/>
    <path class="st1" d="M274.68,176.04c-1.52,0-2.75,1.23-2.75,2.75s1.23,2.75,2.75,2.75,2.75-1.23,2.75-2.75-1.23-2.75-2.75-2.75Z"/>
    <path class="st1" d="M274.68,167.66c-1.52,0-2.75,1.23-2.75,2.75s1.23,2.75,2.75,2.75,2.75-1.23,2.75-2.75-1.23-2.75-2.75-2.75Z"/>
    <circle class="st1" cx="282.33" cy="178.79" r="2.75"/>
    <path class="st1" d="M282.33,167.66c-1.52,0-2.75,1.23-2.75,2.75s1.23,2.75,2.75,2.75,2.75-1.23,2.75-2.75-1.23-2.75-2.75-2.75Z"/>
    <circle class="st1" cx="289.98" cy="178.79" r="2.75"/>
    <path class="st1" d="M289.98,167.66c-1.52,0-2.75,1.23-2.75,2.75s1.23,2.75,2.75,2.75,2.75-1.23,2.75-2.75-1.23-2.75-2.75-2.75Z"/>
    <path class="st1" d="M297.64,184.43c-1.52,0-2.75,1.23-2.75,2.75s1.23,2.75,2.75,2.75,2.75-1.23,2.75-2.75-1.23-2.75-2.75-2.75Z"/>
    <path class="st1" d="M297.64,176.04c-1.52,0-2.75,1.23-2.75,2.75s1.23,2.75,2.75,2.75,2.75-1.23,2.75-2.75-1.23-2.75-2.75-2.75Z"/>
    <path class="st1" d="M297.64,167.66c-1.52,0-2.75,1.23-2.75,2.75s1.23,2.75,2.75,2.75,2.75-1.23,2.75-2.75-1.23-2.75-2.75-2.75Z"/>
  </g>
</svg>